<?xml version="1.0" standalone="no"?>
<!DOCTYPE svg PUBLIC "-//W3C//DTD SVG 20010904//EN"
 "http://www.w3.org/TR/2001/REC-SVG-20010904/DTD/svg10.dtd">
<svg version="1.0" xmlns="http://www.w3.org/2000/svg"
 width="1200.000000pt" height="630.000000pt" viewBox="0 0 1200.000000 630.000000"
 preserveAspectRatio="xMidYMid meet">

<g transform="translate(0.000000,630.000000) scale(0.100000,-0.100000)"
fill="#000000" stroke="none">
<path d="M0 3354 l0 -2946 25 6 c14 4 105 18 203 31 97 14 231 34 298 45 66
11 156 19 200 18 105 -2 134 10 134 56 0 25 5 36 19 41 19 6 61 -12 61 -26 0
-23 75 -79 106 -79 24 0 19 -103 -6 -125 -11 -10 -20 -27 -20 -38 0 -16 -5
-18 -30 -15 -16 3 -31 2 -31 -1 -4 -19 -9 -53 -15 -111 -8 -72 -21 -89 -69
-90 -44 -1 -59 -13 -51 -43 7 -30 53 -47 126 -47 25 0 58 -7 74 -15 23 -12 76
-15 281 -15 l253 0 7 57 c10 89 25 139 36 122 7 -11 9 -9 9 8 0 16 5 20 19 16
25 -6 31 -31 31 -125 l0 -78 209 0 c206 0 209 0 224 23 8 12 18 37 21 55 4 17
12 35 18 38 7 5 9 0 5 -15 -3 -14 1 -24 13 -31 9 -5 20 -23 23 -40 l7 -30
1295 0 1295 0 0 25 c0 16 -6 25 -16 25 -8 0 -13 4 -10 9 4 5 -5 23 -19 39 -24
29 -35 82 -16 82 5 0 16 -16 25 -35 11 -22 24 -35 36 -35 21 0 56 -55 41 -64
-5 -4 -12 0 -15 6 -3 7 -4 0 -3 -17 2 -28 5 -30 49 -33 43 -3 47 -1 41 15 -4
10 -16 26 -27 36 -18 16 -19 19 -3 34 15 15 17 15 26 -8 9 -22 10 -23 10 -3 2
65 -29 117 -49 83 -9 -13 -90 -21 -90 -8 0 4 4 18 9 32 6 15 5 37 -2 60 -13
42 -32 44 -32 4 -1 -32 -12 -45 -21 -23 -3 9 -12 16 -19 16 -7 0 -18 6 -24 14
-9 11 -5 15 19 19 16 4 30 12 30 18 0 7 -10 9 -28 6 -24 -5 -30 -2 -39 24 -13
34 -28 37 -43 9 -17 -31 -30 -24 -18 11 6 19 15 28 24 25 7 -3 16 -1 19 4 7
11 -12 50 -23 49 -22 -4 -32 3 -32 22 0 13 -4 18 -12 13 -7 -4 -2 7 11 24 12
18 27 32 34 32 8 0 8 3 -1 12 -9 9 -15 9 -24 0 -13 -13 -52 3 -43 19 4 5 1 23
-7 39 -21 48 -38 34 -19 -15 5 -11 4 -28 -1 -38 -13 -24 -49 -22 -55 4 -4 12
-17 42 -30 66 -25 48 -28 77 -13 119 12 31 4 64 -15 64 -13 0 -35 -56 -35 -90
0 -13 -1 -13 -10 0 -9 13 -12 13 -21 -2 -15 -26 -26 -22 -38 13 -18 53 -14 97
10 104 12 4 26 2 33 -5 8 -10 8 -11 -1 -6 -7 4 -14 -2 -17 -14 -3 -11 -9 -29
-12 -40 -4 -14 -1 -20 10 -20 9 0 16 8 16 19 0 11 20 41 45 67 25 25 45 51 45
57 0 5 10 36 22 69 16 45 38 77 92 132 84 87 140 112 225 100 37 -5 51 -3 51
5 0 7 8 10 18 7 12 -4 28 4 46 23 16 16 39 32 52 35 15 4 24 14 24 26 0 10 6
23 14 27 20 12 2 53 -24 53 -12 0 -18 5 -15 10 3 6 15 10 26 10 20 0 26 24 8
36 -6 4 -9 19 -5 35 5 28 4 29 -22 22 -23 -5 -25 -4 -15 9 9 10 10 24 3 50
-13 46 -36 56 -43 20 -3 -15 -1 -28 4 -30 5 -2 4 -12 -2 -23 -5 -11 -14 -17
-20 -14 -5 4 -7 10 -4 15 3 5 1 19 -5 30 -9 16 -8 25 0 35 7 8 9 19 5 25 -6 9
7 14 28 11 4 0 7 3 7 9 0 5 -8 10 -18 10 -10 0 -23 5 -30 12 -9 9 -12 6 -12
-16 0 -34 -13 -27 -46 25 -35 55 -83 54 -53 -2 11 -21 -2 -80 -25 -108 -6 -7
-11 -19 -11 -25 -1 -6 -5 -19 -9 -28 -13 -28 -26 -10 -15 19 5 15 8 32 5 40
-6 14 -36 18 -36 4 0 -4 -17 -28 -37 -52 -42 -49 -58 -73 -73 -106 -5 -13 -14
-23 -20 -23 -5 0 -10 -5 -10 -12 0 -6 -10 -22 -22 -36 -19 -20 -23 -35 -23
-95 l-1 -72 -32 -3 c-30 -3 -32 -1 -32 27 0 59 -43 48 -54 -14 -4 -20 -13 -35
-20 -35 -8 0 -16 -7 -20 -15 -3 -8 -13 -15 -22 -15 -14 0 -16 -7 -11 -45 5
-30 3 -45 -5 -45 -6 0 -21 -12 -34 -27 -13 -15 -27 -24 -31 -19 -4 4 0 12 10
17 23 14 21 27 -5 31 -14 2 -25 13 -29 28 -8 29 -13 15 -18 -47 0 -13 -5 -23
-10 -23 -4 0 -6 11 -3 25 6 32 -1 32 -35 -3 -23 -24 -33 -27 -58 -21 -61 14
-105 39 -105 59 0 28 -31 42 -55 24 -17 -12 -21 -11 -42 8 -13 12 -23 30 -23
40 0 10 -7 30 -16 43 -11 17 -14 36 -10 57 8 40 82 198 93 198 5 0 26 17 47
37 l38 37 -34 17 c-18 10 -59 46 -91 81 -32 35 -68 74 -81 88 -13 14 -33 57
-45 95 -12 39 -26 78 -32 87 -18 35 -58 164 -64 213 -4 28 -10 55 -15 60 -4 6
-11 28 -15 50 -4 22 -11 45 -17 52 -5 7 -11 22 -13 35 -2 13 -9 43 -15 67 -6
24 -8 51 -5 59 3 9 -1 36 -9 61 -30 96 -56 202 -51 210 2 5 -4 34 -15 65 -11
34 -15 58 -9 62 5 3 7 15 3 26 -4 13 0 24 12 32 12 9 14 15 6 20 -16 10 -15
26 1 26 16 0 12 107 -5 127 -8 9 -7 17 3 29 11 14 10 18 -6 30 -17 13 -18 17
-6 36 9 14 10 23 2 27 -6 4 -15 39 -21 78 -5 38 -17 97 -26 129 -9 33 -16 66
-16 74 0 26 -41 100 -56 100 -8 0 -12 6 -9 13 7 19 -11 111 -24 115 -6 3 -6 9
2 18 8 10 8 18 1 27 -10 11 -21 82 -24 147 0 8 -5 21 -11 28 -10 13 -16 38
-24 112 -3 25 -10 50 -15 57 -5 7 -7 21 -4 31 4 12 -2 35 -15 56 -11 20 -18
43 -15 51 3 8 1 15 -5 15 -6 0 -8 9 -4 20 4 12 1 27 -5 35 -7 8 -10 15 -7 15
3 0 1 15 -4 33 -6 17 -12 52 -14 77 -3 39 -10 51 -59 96 -31 29 -56 58 -56 65
0 8 19 30 43 51 29 27 37 38 25 38 -15 0 -17 6 -12 36 4 25 1 39 -8 45 -10 6
-10 11 0 21 6 6 12 20 12 29 0 9 10 23 21 31 17 11 20 18 12 33 -27 52 -35 74
-29 84 4 6 4 16 0 23 -4 7 -9 21 -10 32 -2 12 -8 46 -14 76 -9 44 -19 206 -22
336 0 16 -8 24 -30 28 -29 6 -30 8 -24 47 4 22 13 51 22 64 9 13 13 29 9 35
-9 15 -35 221 -29 231 3 5 -2 19 -11 32 -8 13 -13 32 -9 41 4 9 0 24 -8 34
-16 18 -26 51 -35 115 -6 43 -18 52 -85 61 -30 5 -53 14 -61 27 -8 10 -16 17
-19 14 -3 -3 -13 4 -23 15 -10 11 -14 20 -10 20 5 0 0 7 -11 15 -17 13 -17 17
-4 28 23 19 23 38 0 62 -19 20 -19 23 -4 29 16 6 16 8 -1 26 -15 16 -15 22 -5
35 11 13 -134 15 -1364 15 l-1376 0 0 -2946z m4904 -1920 c4 -15 2 -32 -3 -37
-8 -8 -11 -5 -11 10 0 12 -3 28 -6 37 -3 9 -2 16 4 16 5 0 13 -12 16 -26z
m-27 -26 c-3 -8 -6 -5 -6 6 -1 11 2 17 5 13 3 -3 4 -12 1 -19z m-269 -68 c15
-33 9 -52 -13 -44 -17 7 -30 -34 -23 -71 6 -29 -12 -34 -32 -10 -10 12 -10 19
-2 27 7 7 12 23 12 38 0 33 15 55 30 45 9 -6 9 -3 1 13 -14 27 -14 32 2 32 6
0 18 -13 25 -30z m64 -2 c-9 -9 -12 -7 -12 12 0 19 3 21 12 12 9 -9 9 -15 0
-24z m-227 -248 c-3 -5 -10 -10 -16 -10 -5 0 -9 5 -9 10 0 6 7 10 16 10 8 0
12 -4 9 -10z m-109 -67 c-10 -10 -19 5 -10 18 6 11 8 11 12 0 2 -7 1 -15 -2
-18z m-51 -80 c0 -6 3 -15 8 -19 14 -14 7 -34 -13 -34 -16 0 -20 7 -20 36 0
24 4 34 13 32 6 -3 12 -10 12 -15z m-298 1 c-3 -3 -12 -4 -19 -1 -8 3 -5 6 6
6 11 1 17 -2 13 -5z m413 -14 c0 -5 -9 -10 -21 -10 -11 0 -17 5 -14 10 3 6 13
10 21 10 8 0 14 -4 14 -10z m-190 -111 c0 -5 -4 -9 -10 -9 -5 0 -10 7 -10 16
0 8 5 12 10 9 6 -3 10 -10 10 -16z m285 -359 c-6 -9 -9 -9 -16 1 -10 17 0 34
13 21 6 -6 7 -16 3 -22z m15 -61 c0 -11 -4 -17 -10 -14 -5 3 -10 13 -10 21 0
8 5 14 10 14 6 0 10 -9 10 -21z m-555 -109 c8 0 15 3 15 8 0 4 9 13 20 19 16
11 18 10 14 -2 -4 -8 -10 -15 -15 -15 -9 0 -39 -53 -39 -70 0 -21 28 -9 34 15
5 19 13 25 35 25 23 0 30 -5 33 -25 3 -13 0 -27 -6 -29 -6 -3 -2 -5 9 -5 37 2
45 -1 45 -16 0 -17 -32 -20 -59 -6 -20 11 -35 4 -44 -22 -10 -28 -42 -17 -41
13 1 14 -7 31 -17 38 -21 15 -33 63 -23 94 l7 23 8 -23 c5 -12 15 -22 24 -22z
m608 -10 c6 -23 -3 -26 -21 -8 -16 16 -15 28 2 28 7 0 16 -9 19 -20z m-3548
-89 c-3 -6 3 -14 12 -20 22 -12 16 -19 -25 -27 -41 -8 -48 9 -27 60 16 38 17
38 31 17 8 -11 13 -25 9 -30z m3560 29 c3 -5 -1 -10 -9 -10 -9 0 -16 5 -16 10
0 6 4 10 9 10 6 0 13 -4 16 -10z m-355 -64 c0 -11 -19 -15 -25 -6 -3 5 1 10 9
10 9 0 16 -2 16 -4z m410 -15 c0 -6 -4 -13 -10 -16 -5 -3 -10 1 -10 9 0 9 5
16 10 16 6 0 10 -4 10 -9z m-43 -23 c-3 -8 -6 -5 -6 6 -1 11 2 17 5 13 3 -3 4
-12 1 -19z m26 -64 c-4 -12 -8 -13 -14 -3 -9 15 -2 32 11 24 5 -3 6 -13 3 -21z"/>
<path d="M3885 6263 c3 -21 9 -64 12 -96 2 -32 11 -70 18 -84 7 -14 11 -32 8
-39 -3 -8 0 -21 7 -29 7 -9 15 -41 19 -73 3 -31 11 -57 16 -57 18 0 35 233 21
285 -5 18 -2 31 12 46 11 11 23 31 27 45 4 13 13 27 19 31 6 4 -29 8 -78 8
l-88 0 7 -37z"/>
<path d="M4075 6280 c13 -14 22 -17 29 -10 16 16 26 12 36 -12 8 -22 9 -22 9
-2 1 17 6 20 31 16 17 -2 30 -10 30 -17 0 -7 7 -26 15 -41 14 -27 15 -27 15
-6 0 12 6 22 14 22 9 0 12 -8 8 -25 -3 -18 0 -25 11 -25 9 0 19 -9 22 -20 3
-11 9 -20 13 -20 4 0 8 -16 10 -36 1 -26 -1 -33 -10 -27 -16 9 -122 25 -167
25 -19 -1 -38 -5 -44 -11 -13 -13 -11 -124 3 -186 6 -27 14 -70 17 -95 3 -25
9 -49 14 -54 5 -6 9 -20 9 -32 0 -13 5 -26 10 -29 6 -3 7 -17 4 -31 -4 -17 -1
-26 10 -30 9 -3 16 -14 16 -24 0 -11 5 -22 11 -25 6 -4 8 -13 5 -21 -3 -7 -1
-16 4 -19 5 -3 12 -32 16 -65 5 -50 10 -59 28 -62 18 -3 21 -9 19 -41 -1 -21
2 -37 9 -37 7 0 7 -4 -1 -14 -9 -10 -9 -20 0 -39 8 -18 8 -30 0 -45 -18 -34
-14 -62 9 -62 24 0 26 -9 4 -24 -18 -13 -30 -136 -14 -136 6 0 10 -8 10 -17 1
-25 74 -103 96 -103 11 0 33 -11 49 -25 41 -34 86 -53 147 -61 43 -6 53 -4 66
12 13 18 14 17 7 -6 -8 -25 -8 -25 14 -6 15 14 18 22 10 27 -28 17 14 184 54
218 10 7 17 21 17 31 0 9 18 38 40 63 22 25 40 48 40 52 0 7 59 86 71 95 4 3
22 16 40 29 66 48 205 197 228 245 19 39 22 52 12 72 -6 14 -19 27 -28 31 -10
4 -29 18 -42 32 -20 21 -22 29 -14 51 14 37 -8 70 -33 50 -14 -12 -15 -11 -12
6 2 12 -3 19 -12 19 -22 1 -41 15 -35 26 4 5 -5 9 -18 9 -14 0 -30 7 -37 15
-7 8 -17 15 -22 15 -13 0 -38 26 -38 40 0 8 -9 10 -24 6 -26 -6 -47 11 -24 19
8 3 14 21 15 41 1 34 -1 36 -26 32 -24 -4 -26 -1 -23 27 3 21 14 37 39 53 19
12 38 22 43 22 19 0 17 40 -4 54 -18 13 -19 15 -3 15 10 1 17 9 17 20 0 14 -5
18 -21 14 -16 -5 -20 -1 -19 13 1 10 2 25 1 32 -1 9 -88 12 -398 12 l-396 0
18 -20z m283 -128 c2 -7 -3 -12 -12 -12 -9 0 -16 7 -16 16 0 17 22 14 28 -4z
m26 -64 c-9 -14 -23 2 -17 18 4 12 8 13 14 3 4 -7 5 -17 3 -21z m336 -108 c0
-5 -10 -10 -22 -10 -19 0 -20 2 -8 10 19 13 30 13 30 0z m-420 -870 c0 -5 -7
-10 -16 -10 -8 0 -12 5 -9 10 3 6 10 10 16 10 5 0 9 -4 9 -10z"/>
<path d="M10108 6218 c1 -46 6 -114 12 -153 5 -38 12 -115 15 -170 3 -55 10
-154 16 -220 10 -126 27 -375 34 -510 3 -44 7 -107 11 -140 3 -33 7 -78 9
-100 2 -22 6 -98 10 -170 3 -71 10 -157 15 -190 10 -63 17 -175 26 -365 5
-116 14 -231 34 -418 13 -116 3 -168 -33 -181 -40 -15 -235 -23 -242 -10 -6 8
-10 7 -17 -2 -6 -10 -8 -8 -6 8 2 13 -5 28 -17 36 -16 13 -17 17 -6 31 14 17
13 18 -40 30 -15 3 -29 15 -32 26 -3 11 -12 20 -21 20 -9 0 -16 5 -16 10 0 6
-6 10 -13 10 -7 0 -48 18 -92 40 -44 22 -86 40 -94 40 -8 0 -39 12 -70 27 -31
14 -65 29 -76 33 -11 4 -72 33 -136 64 -64 31 -123 56 -131 56 -8 0 -23 7 -34
15 -10 8 -26 15 -35 15 -9 0 -22 7 -29 15 -7 9 -19 14 -26 11 -6 -2 -14 5 -17
16 -3 11 -10 17 -16 13 -6 -3 -23 2 -39 12 -15 10 -40 20 -57 22 -16 2 -32 6
-35 10 -3 3 -31 20 -62 36 -32 17 -58 33 -58 36 0 4 -10 9 -22 12 -46 11 -124
44 -158 66 -25 15 -45 21 -68 17 -23 -3 -37 0 -50 14 -9 10 -40 24 -67 31 -28
6 -59 20 -71 30 -11 11 -30 19 -42 19 -14 0 -22 6 -22 16 0 13 -7 15 -29 11
-20 -4 -31 -2 -35 8 -3 8 -15 15 -26 15 -11 0 -20 4 -20 10 0 5 -17 14 -37 19
-40 11 -38 13 -119 -67 -37 -37 -62 -36 -41 1 6 12 18 26 25 30 6 4 12 12 12
17 0 10 13 27 56 73 19 20 54 87 54 102 0 3 6 13 14 20 7 8 16 32 20 54 6 40
20 53 29 29 3 -8 9 -3 16 12 6 14 15 32 20 40 22 38 41 93 41 120 0 17 4 38 9
48 5 9 26 51 46 94 20 42 45 84 56 94 10 9 19 23 19 29 0 7 6 18 14 25 17 13
52 115 61 175 8 52 24 112 41 152 8 17 14 34 14 39 0 4 6 15 14 23 7 9 28 63
46 121 18 58 38 112 46 120 7 8 15 27 19 42 9 33 -19 51 -67 42 -50 -10 -166
-92 -209 -149 -20 -27 -51 -64 -68 -81 -17 -16 -31 -34 -31 -40 -1 -17 -38
-54 -54 -54 -9 0 -16 -5 -16 -10 0 -17 -157 -160 -175 -160 -3 0 -21 -11 -40
-25 -53 -41 -147 -85 -193 -92 -23 -3 -45 -10 -48 -14 -3 -5 -13 -9 -23 -9
-10 0 -25 -10 -34 -22 -20 -30 -40 -12 -41 37 -1 24 -5 34 -13 30 -16 -5 -18
41 -3 50 7 4 8 11 2 18 -5 7 -7 27 -5 45 4 25 10 32 28 32 14 0 26 8 30 19 3
12 12 17 23 15 9 -2 24 0 32 6 13 9 13 12 -2 21 -10 5 -18 17 -18 24 0 8 8 15
18 15 15 1 15 2 -2 15 -16 12 -17 18 -8 27 7 7 12 8 12 4 0 -5 7 -3 15 4 23
19 18 33 -9 26 -20 -5 -25 -2 -28 16 -2 13 -11 24 -23 27 -11 2 -26 12 -33 22
-10 15 -17 17 -33 9 -13 -7 -25 -7 -38 0 -11 5 -27 7 -35 4 -12 -4 -16 0 -16
15 0 27 -16 27 -32 1 -7 -11 -20 -20 -29 -20 -28 0 -31 -14 -7 -32 19 -15 20
-18 6 -18 -12 0 -18 -8 -18 -25 0 -18 -5 -25 -20 -25 -11 0 -20 5 -20 11 0 23
-20 -4 -26 -36 -4 -21 -11 -32 -19 -29 -18 7 -30 -47 -13 -57 7 -5 14 -4 16 1
2 6 15 10 29 10 19 0 24 4 19 16 -7 19 12 47 25 38 5 -3 9 -18 9 -35 0 -16 5
-29 10 -29 21 0 9 -30 -14 -36 -26 -6 -40 -36 -23 -53 7 -7 6 -19 -3 -40 -11
-27 -10 -35 9 -66 11 -20 21 -43 21 -51 0 -8 5 -14 10 -14 6 0 10 -7 10 -15 0
-18 31 -35 62 -35 13 0 28 -8 34 -18 11 -16 9 -18 -15 -14 -21 3 -30 -2 -37
-18 -7 -17 -20 -23 -47 -25 -20 -1 -37 2 -37 7 0 13 -27 9 -40 -7 -7 -8 -21
-15 -32 -15 -11 0 -36 -17 -56 -37 -22 -22 -45 -36 -56 -34 -14 2 -17 -2 -13
-13 4 -9 2 -16 -3 -16 -6 0 -10 6 -10 13 0 7 -3 8 -8 2 -4 -5 -15 -10 -24 -11
-49 -2 -58 -5 -58 -19 0 -8 -6 -15 -14 -15 -8 0 -16 -7 -20 -15 -3 -8 -17 -15
-30 -15 -26 0 -63 -41 -52 -58 2 -4 -8 -24 -25 -43 -16 -19 -29 -38 -29 -43 0
-5 -15 -28 -32 -51 l-33 -42 -67 1 c-37 1 -71 5 -74 9 -4 4 -22 7 -40 7 -18 0
-34 4 -36 9 -7 19 -111 81 -171 101 -58 20 -67 20 -130 7 -64 -13 -67 -13 -73
6 -5 16 -12 18 -43 13 -40 -6 -105 18 -131 49 -24 29 -65 44 -104 38 -34 -5
-36 -4 -34 18 2 18 -2 24 -17 25 -11 1 -44 5 -72 9 -41 6 -53 12 -53 25 0 13
12 19 53 23 48 6 194 -4 259 -18 61 -12 40 44 -27 71 -25 11 -45 25 -45 32 0
18 -45 15 -82 -6 -18 -10 -43 -21 -55 -24 -19 -5 -23 -2 -23 18 0 17 6 24 19
24 11 0 22 4 25 9 13 20 135 27 149 8 7 -9 10 -9 14 1 2 6 11 12 19 12 8 0 14
5 14 11 0 16 -25 34 -88 64 -29 15 -52 31 -50 37 3 7 34 10 87 9 65 -2 82 1
78 11 -2 7 -10 12 -16 10 -22 -5 -69 38 -81 73 -11 32 -15 35 -50 35 -21 0
-40 -4 -42 -9 -1 -5 -21 -11 -43 -13 -37 -3 -41 0 -56 30 -15 29 -18 31 -30
15 -8 -9 -30 -23 -49 -31 -32 -13 -35 -13 -52 8 -24 30 -23 38 10 46 15 4 30
12 34 18 5 7 12 4 21 -8 14 -19 15 -19 26 1 8 17 8 22 -5 27 -10 4 -14 12 -10
22 12 31 -62 72 -79 44 -3 -5 0 -10 7 -10 7 0 -2 -9 -19 -20 -18 -11 -33 -27
-33 -35 0 -22 -27 -18 -40 5 -7 13 -7 20 -1 20 6 0 8 6 5 14 -3 8 -12 12 -20
9 -8 -3 -14 -1 -14 5 0 9 -47 27 -62 24 -15 -4 -8 8 28 44 33 33 40 35 73 29
20 -4 52 -9 71 -10 19 -1 52 -9 72 -18 21 -9 46 -17 57 -17 11 0 35 -9 53 -20
66 -40 114 -15 59 31 -35 29 -90 42 -162 39 -42 -1 -51 3 -90 39 -27 25 -54
41 -70 41 -39 0 -78 -22 -88 -52 -5 -14 -19 -29 -30 -33 -11 -3 -20 -11 -18
-17 3 -13 -30 -34 -40 -25 -4 5 -2 11 5 16 8 5 2 17 -22 40 -22 21 -36 29 -41
21 -4 -6 -15 -8 -25 -5 -26 8 -69 -33 -49 -46 11 -7 9 -9 -7 -9 -12 0 -36 -5
-53 -11 -30 -11 -33 -15 -29 -47 6 -53 -15 -88 -57 -96 -20 -4 -40 -4 -46 -1
-5 4 -15 2 -22 -3 -14 -12 -87 -12 -87 1 0 4 -5 5 -12 1 -8 -5 -6 -11 6 -20
16 -11 15 -13 -6 -28 -12 -9 -28 -16 -35 -16 -6 0 -15 -9 -18 -20 -3 -11 -12
-20 -20 -20 -7 0 -15 -9 -18 -20 -3 -11 -11 -19 -18 -18 -7 2 -18 -7 -24 -20
-5 -12 -18 -25 -27 -28 -12 -4 -17 -15 -16 -40 1 -19 -4 -40 -10 -46 -9 -9
-12 -8 -12 6 0 10 -5 14 -11 10 -6 -3 -8 -16 -5 -28 6 -22 -13 -76 -27 -76
-22 0 -77 -54 -77 -75 0 -13 -6 -26 -12 -28 -8 -3 -9 -6 -2 -6 6 -1 -4 -17
-22 -37 -19 -19 -34 -40 -34 -45 0 -5 16 -9 35 -9 36 0 50 -22 20 -34 -19 -7
-19 -33 0 -44 14 -7 14 -11 0 -39 -8 -17 -22 -36 -30 -43 -13 -11 -15 -8 -15
16 0 28 0 28 -19 9 -11 -11 -26 -36 -34 -57 -13 -31 -13 -39 -1 -56 8 -11 12
-26 11 -34 -2 -7 -2 -10 1 -5 2 4 20 14 39 22 19 8 44 26 55 40 22 28 50 32
68 10 8 -10 21 -13 33 -9 19 6 20 3 14 -39 l-7 -46 30 2 c25 2 30 6 30 29 0
15 -7 34 -16 42 -15 16 -11 56 6 56 4 0 11 11 14 25 4 14 13 25 22 25 8 0 17
7 20 15 3 8 16 17 27 21 12 3 36 17 54 30 57 43 81 27 42 -27 -23 -33 -18 -72
8 -62 13 5 14 -1 8 -43 -3 -27 -6 -85 -6 -130 1 -75 -1 -82 -23 -94 -15 -8
-38 -10 -60 -6 -32 6 -36 4 -36 -14 0 -17 6 -20 48 -20 34 0 43 -3 32 -10 -8
-5 -30 -10 -47 -10 -18 0 -33 -5 -33 -11 0 -5 5 -7 11 -4 19 12 54 -4 66 -30
6 -14 7 -25 2 -25 -5 0 -9 -11 -9 -24 0 -14 -4 -27 -9 -30 -16 -11 -132 -10
-139 0 -11 16 -66 -18 -70 -43 -4 -26 -33 -34 -98 -27 -34 4 -70 1 -109 -11
-48 -13 -60 -14 -67 -3 -6 9 -7 6 -3 -9 5 -18 2 -23 -13 -23 -10 0 -28 -11
-40 -25 -22 -26 -30 -75 -12 -75 6 0 10 -7 10 -15 0 -8 3 -15 8 -15 19 1 83
28 100 43 10 9 23 17 29 17 5 0 39 9 75 21 41 12 84 19 114 17 l49 -4 -37 -17
c-46 -21 -49 -37 -8 -37 45 0 36 -17 -17 -32 -32 -9 -47 -19 -46 -29 2 -8 -6
-19 -16 -24 -11 -6 -36 -19 -56 -29 -53 -28 -87 -83 -91 -151 -2 -43 0 -55 12
-55 8 0 14 5 14 12 0 6 8 20 17 30 9 11 16 32 15 47 -5 61 64 118 144 120 40
1 69 -29 60 -63 -5 -19 -2 -26 14 -31 26 -8 26 -29 0 -22 -10 3 -18 1 -17 -5
3 -12 -78 -58 -101 -58 -21 0 -68 -49 -64 -67 1 -7 -5 -9 -18 -6 -21 6 -25 -3
-11 -26 5 -8 14 -10 22 -5 7 4 29 7 49 5 19 -1 52 5 72 13 21 9 47 16 59 16
11 0 33 8 47 19 15 10 39 21 55 25 24 6 26 4 18 -11 -5 -10 -17 -35 -26 -55
-9 -21 -27 -50 -40 -64 -14 -15 -25 -32 -25 -38 0 -6 5 -4 10 4 6 9 25 15 53
15 37 1 50 7 85 42 33 32 42 37 42 23 0 -10 -4 -21 -8 -24 -14 -8 -1 -66 14
-66 8 0 14 6 14 13 0 15 32 37 80 54 48 17 77 16 84 -3 5 -14 16 -15 69 -9 78
10 115 9 133 -6 7 -6 18 -8 23 -5 5 4 12 2 16 -4 4 -6 11 -8 16 -5 5 4 4 -5
-3 -19 -6 -14 -17 -26 -24 -26 -7 0 -22 -12 -33 -26 -12 -16 -27 -24 -36 -21
-8 4 -17 2 -20 -3 -3 -5 -26 -18 -50 -29 -24 -11 -54 -31 -66 -45 -26 -30 -39
-33 -39 -10 0 11 -10 6 -31 -17 -25 -26 -30 -39 -25 -62 5 -25 0 -35 -39 -73
-25 -23 -45 -46 -45 -49 0 -9 -52 -71 -57 -67 -2 1 -5 -34 -7 -78 -3 -64 -1
-80 11 -80 11 0 12 -8 7 -37 -3 -21 -7 -42 -8 -48 0 -5 10 -11 24 -13 25 -4
49 -28 50 -49 0 -21 -23 -15 -45 13 -24 30 -49 25 -64 -14 l-9 -27 -2 25 c-1
14 -2 28 -1 32 0 4 -6 5 -14 2 -18 -7 -21 26 -3 44 8 8 8 15 -3 28 -7 9 -14
35 -15 58 -2 62 -22 156 -35 172 -9 12 -7 19 10 37 16 18 21 36 21 73 0 48 20
128 41 167 6 11 8 21 6 24 -9 9 -47 -17 -47 -32 0 -8 -4 -15 -10 -15 -5 0 -19
-18 -29 -39 -11 -21 -36 -56 -55 -76 -38 -40 -44 -37 -50 21 -3 32 -32 46 -42
20 -3 -8 -17 -22 -31 -31 -19 -13 -27 -14 -39 -4 -11 9 -14 8 -14 -5 0 -10
-13 -21 -30 -27 -17 -6 -34 -23 -42 -39 -7 -16 -20 -31 -30 -33 -22 -6 -24
-27 -3 -27 9 0 12 -6 8 -15 -3 -9 3 -25 13 -36 14 -15 15 -22 6 -28 -10 -6 -9
-14 3 -37 16 -34 62 -80 70 -72 3 3 20 -9 38 -26 18 -17 47 -42 66 -56 18 -14
44 -35 58 -47 14 -12 28 -23 31 -25 4 -2 27 -25 51 -51 49 -55 45 -80 -8 -53
-17 9 -31 14 -31 12 0 -3 -39 6 -88 19 -48 13 -105 26 -127 29 -22 3 -58 9
-80 12 -58 10 -135 8 -147 -4 -6 -6 -4 -22 6 -47 9 -21 16 -48 16 -62 0 -13 5
-33 11 -44 6 -11 14 -41 19 -67 5 -26 14 -67 20 -92 12 -49 16 -79 18 -140 1
-26 7 -40 16 -40 13 0 14 -5 19 -120 2 -36 8 -85 15 -110 17 -71 26 -233 14
-271 -6 -19 -13 -62 -16 -96 -6 -61 -5 -62 26 -77 23 -12 34 -13 44 -5 26 21
109 105 176 176 36 40 79 78 95 87 24 12 32 25 42 68 16 71 52 115 85 102 23
-9 20 -24 -4 -24 -18 0 -19 -3 -10 -20 6 -12 7 -20 1 -20 -5 0 -7 -37 -5 -87
2 -48 -1 -106 -8 -128 -6 -22 -12 -53 -13 -70 -4 -61 -18 -150 -25 -160 -4 -5
-7 -34 -8 -63 0 -31 -7 -64 -17 -78 -9 -13 -14 -30 -13 -37 2 -7 -6 -32 -16
-55 -17 -37 -18 -45 -5 -68 12 -23 11 -27 -6 -40 -19 -14 -11 -19 23 -15 6 1
12 -2 13 -6 4 -42 17 -84 40 -123 5 -8 15 -29 23 -46 34 -75 116 -135 116 -85
0 14 5 18 20 14 23 -6 27 -28 6 -36 -9 -4 -12 -14 -9 -26 12 -46 112 15 128
79 4 14 10 27 15 30 5 3 24 34 42 70 28 54 43 70 84 92 31 16 66 27 93 27 47
1 120 -27 121 -45 0 -7 18 -19 40 -28 22 -9 40 -21 40 -27 0 -7 10 -9 25 -5
18 5 25 2 25 -8 0 -8 20 -21 48 -29 204 -65 209 -65 269 -20 46 35 48 54 16
119 -36 75 -73 101 -143 105 -67 3 -124 -19 -162 -64 -35 -41 -35 -34 2 46 17
37 47 80 72 103 53 49 166 163 238 242 60 66 215 182 243 182 9 0 17 5 17 10
0 6 7 10 14 10 20 0 106 46 120 65 7 9 44 18 100 25 72 9 95 16 125 39 40 31
127 70 181 81 19 4 76 20 125 35 50 15 103 28 119 31 15 2 36 6 45 9 9 3 52 9
96 15 44 6 103 17 130 25 28 9 73 22 100 30 175 52 353 116 375 135 24 22 24
23 5 32 -15 6 -11 7 14 3 42 -6 61 8 61 46 0 22 5 29 19 29 11 0 23 5 26 10 6
10 -6 14 -35 11 -11 -1 -9 3 5 14 13 10 29 13 48 9 22 -4 33 -1 48 17 10 12
19 29 19 36 0 12 9 13 41 8 103 -18 143 -56 185 -176 28 -80 48 -111 117 -180
24 -24 52 -63 62 -86 11 -24 22 -43 27 -43 18 0 57 -44 49 -54 -6 -7 -4 -19 5
-30 13 -19 14 -19 14 8 0 15 4 25 10 21 6 -3 10 -14 10 -25 0 -10 7 -21 16
-24 22 -9 23 -8 17 14 -3 11 -9 20 -14 20 -5 0 -2 14 6 31 9 17 14 37 11 45
-3 8 -2 14 3 14 5 0 12 -11 15 -25 4 -14 11 -25 16 -25 12 0 3 49 -11 65 -5 5
-9 23 -9 40 0 17 -4 35 -9 40 -6 6 -30 48 -54 95 -97 189 -123 233 -177 298
-57 70 -212 155 -353 193 -29 8 -46 18 -43 25 5 13 -50 41 -60 31 -3 -3 4 -8
15 -12 27 -8 27 -25 0 -25 -27 0 -101 21 -113 32 -13 11 -29 10 -22 -1 6 -9
-63 -21 -121 -21 -27 0 -36 5 -40 21 -4 16 -8 17 -14 7 -6 -9 -9 -3 -9 18 0
33 -8 31 178 60 17 3 32 9 32 14 0 19 -204 26 -270 9 -20 -5 -58 -9 -85 -10
-28 -1 -55 -6 -62 -11 -12 -10 -63 0 -63 12 0 4 14 10 30 13 17 4 30 10 30 15
0 5 -11 7 -24 5 -37 -8 -41 15 -4 25 23 5 34 15 36 30 3 17 -3 22 -30 26 -80
12 -105 16 -129 22 -21 5 -27 2 -32 -15 -7 -28 -37 -26 -61 3 -19 24 -66 25
-66 2 -1 -28 -15 -36 -47 -24 -30 11 -49 44 -44 75 1 7 -7 23 -19 35 l-20 22
31 28 c16 15 34 28 39 28 5 0 11 9 15 20 7 23 -13 55 -35 55 -17 0 -27 44 -12
54 5 3 12 21 15 40 l7 34 -43 -5 c-49 -6 -87 16 -87 51 0 11 -4 23 -10 26 -5
3 -10 19 -10 35 0 20 -6 31 -20 35 -25 8 -26 21 -2 34 16 10 16 12 -2 25 -10
8 -15 20 -11 26 6 9 9 152 6 216 -1 7 -10 14 -21 17 -11 3 -20 12 -20 21 0 13
-5 13 -37 -5 l-36 -20 -36 40 c-20 23 -40 41 -44 41 -5 0 -22 13 -40 30 -21
19 -34 25 -38 18 -12 -18 -55 6 -73 40 -8 16 -22 32 -31 35 -17 7 -21 37 -5
37 6 0 10 7 10 15 0 8 -7 15 -15 15 -21 0 -19 19 3 26 9 4 37 15 62 27 25 11
66 20 92 21 26 0 45 3 42 8 -3 4 13 8 35 8 32 0 41 4 41 18 0 11 3 13 8 5 8
-13 62 -6 62 9 0 5 5 6 11 3 6 -4 8 -13 5 -20 -5 -14 20 -30 42 -26 8 1 20 -3
28 -10 33 -27 134 -192 134 -220 0 -25 33 -79 44 -71 6 4 38 18 71 31 33 12
74 29 90 36 17 8 41 19 55 25 14 6 39 18 55 29 17 10 54 21 83 25 29 4 73 18
99 32 62 33 76 29 79 -23 1 -22 5 -51 9 -63 6 -20 5 -22 -18 -16 -33 8 -54
-21 -29 -40 15 -11 15 -16 4 -35 -11 -18 -12 -23 -1 -30 11 -6 10 -9 -4 -15
-9 -3 -17 -15 -17 -25 0 -10 -6 -18 -12 -16 -7 1 -13 -4 -12 -10 1 -7 2 -32 3
-55 1 -32 4 -39 11 -28 7 11 10 5 10 -22 0 -32 4 -39 25 -44 14 -3 25 -10 25
-15 0 -5 6 -9 14 -9 8 0 21 -9 29 -20 8 -11 38 -26 72 -35 32 -8 68 -22 81
-30 13 -8 37 -15 53 -15 17 0 52 -8 78 -19 26 -10 73 -24 103 -31 30 -7 61
-17 68 -23 7 -5 15 -7 19 -3 10 9 3 131 -8 134 -5 2 -9 16 -9 32 0 15 -7 44
-16 65 -8 20 -12 40 -8 44 4 3 9 0 11 -7 4 -10 9 -9 24 4 10 9 25 14 34 11 19
-8 20 -27 0 -27 -11 0 -15 -11 -15 -40 0 -36 3 -40 25 -40 29 0 29 0 13 -35
-8 -18 -8 -31 -1 -48 18 -37 23 -58 13 -52 -6 3 -10 -1 -10 -9 0 -9 6 -16 14
-16 8 0 16 -12 18 -26 2 -21 15 -31 73 -55 39 -17 75 -36 80 -42 12 -16 96
-57 116 -57 12 -1 90 -27 204 -68 140 -51 236 -82 271 -85 22 -3 59 -14 82
-26 23 -12 45 -20 49 -19 15 3 68 -13 113 -34 24 -12 60 -25 80 -28 19 -4 47
-11 63 -15 22 -6 27 -4 27 12 0 10 9 24 20 31 11 7 20 17 20 24 0 6 -9 3 -20
-7 -20 -18 -21 -18 -41 4 -20 22 -20 23 -3 42 18 19 18 21 1 30 -9 6 -23 22
-31 37 -8 15 -26 40 -41 54 -21 21 -26 34 -21 52 6 25 -8 44 -19 26 -3 -5 -1
-10 6 -10 7 0 9 -3 5 -7 -7 -7 -66 52 -66 67 0 5 11 4 25 -2 14 -6 25 -16 25
-21 0 -5 9 -7 19 -4 20 5 26 -1 91 -83 38 -48 55 -80 64 -120 12 -51 20 -55
109 -54 74 1 90 4 144 33 61 33 114 87 133 135 6 18 17 26 33 26 28 0 47 -34
47 -86 0 -19 4 -65 10 -102 5 -37 11 -109 14 -160 3 -61 10 -102 20 -117 14
-21 55 -39 112 -51 25 -4 160 -46 174 -53 35 -18 50 -71 44 -166 -11 -194 -25
-358 -31 -368 -3 -6 -10 -87 -14 -180 -8 -192 -16 -215 -83 -230 -43 -11 -52
-33 -42 -106 7 -55 -4 -95 -31 -109 -12 -7 -51 -3 -123 13 -109 23 -467 113
-555 139 -27 9 -51 13 -54 11 -2 -3 -5 -67 -7 -142 -2 -103 -8 -157 -24 -213
-12 -41 -23 -97 -26 -125 -2 -27 -6 -60 -9 -73 -9 -36 -65 -122 -81 -122 -22
0 -34 -42 -23 -86 13 -59 11 -200 -7 -384 -19 -202 -21 -374 -4 -502 l12 -98
1364 0 1364 0 0 3150 0 3150 -948 0 -947 0 3 -82z m-4548 -656 c0 -14 -36 -43
-43 -35 -4 3 0 15 10 25 17 19 33 24 33 10z m160 -28 c0 -17 -22 -14 -28 4 -2
7 3 12 12 12 9 0 16 -7 16 -16z m-147 -24 c-3 -11 -9 -20 -14 -20 -10 0 -12
24 -2 33 13 13 21 7 16 -13z m107 -1 c0 -11 -4 -17 -10 -14 -5 3 -10 13 -10
21 0 8 5 14 10 14 6 0 10 -9 10 -21z m-256 -20 c-3 -5 -10 -7 -15 -3 -5 3 -7
10 -3 15 3 5 10 7 15 3 5 -3 7 -10 3 -15z m326 17 c0 -2 -7 -6 -15 -10 -8 -3
-15 -1 -15 4 0 6 7 10 15 10 8 0 15 -2 15 -4z m-510 -66 c0 -13 -7 -20 -20
-20 -13 0 -20 7 -20 20 0 13 7 20 20 20 13 0 20 -7 20 -20z m150 -20 c0 -11
-8 -16 -42 -24 -21 -5 -30 -2 -38 15 -11 19 -10 20 11 9 18 -10 24 -9 31 3 8
16 38 13 38 -3z m120 -4 c0 -20 -19 -31 -32 -18 -6 6 -7 15 -4 21 10 16 36 13
36 -3z m-380 -21 c0 -14 -2 -25 -4 -25 -2 0 -6 11 -8 25 -3 14 -1 25 3 25 5 0
9 -11 9 -25z m578 -55 c-30 -23 -89 -31 -95 -12 -6 16 32 31 81 31 l39 1 -25
-20z m240 -12 c26 -13 28 -24 5 -32 -10 -4 -20 -1 -25 9 -6 10 -24 15 -58 15
-53 0 -78 17 -33 22 39 4 84 -1 111 -14z m-901 -40 c-3 -8 -6 -5 -6 6 -1 11 2
17 5 13 3 -3 4 -12 1 -19z m-47 -18 c0 -5 -4 -10 -10 -10 -5 0 -10 5 -10 10 0
6 5 10 10 10 6 0 10 -4 10 -10z m666 -32 c8 -13 -42 -61 -59 -55 -20 6 -19 25
2 46 23 23 46 27 57 9z m-146 -27 c0 -12 -29 -23 -41 -15 -5 3 -7 10 -4 15 8
12 45 12 45 0z m-393 -161 c-12 -18 -16 -18 -26 -6 -15 17 -7 48 17 73 16 16
17 15 20 -15 2 -18 -3 -41 -11 -52z m-79 30 c-15 -24 -38 -34 -38 -17 0 17 20
37 37 37 11 0 11 -4 1 -20z m212 -70 c0 -5 -2 -10 -4 -10 -3 0 -8 5 -11 10 -3
6 -1 10 4 10 6 0 11 -4 11 -10z m488 -2 c-6 -17 -77 -39 -104 -32 -24 6 -30
-6 -25 -57 2 -17 -38 -39 -72 -39 -13 0 -27 -4 -32 -9 -6 -4 -25 -11 -42 -14
-30 -6 -33 -4 -33 17 0 19 -4 23 -20 19 -11 -3 -20 -10 -20 -15 0 -13 -50 -61
-57 -55 -12 13 23 92 45 103 13 6 29 20 37 31 10 15 24 19 57 17 57 -2 55 -1
62 -26 l7 -23 9 23 c5 12 14 22 19 22 5 0 8 8 7 18 -1 15 7 17 55 14 34 -2 59
1 63 7 10 15 49 14 44 -1z m106 -16 c3 -5 -4 -14 -14 -22 -10 -8 -17 -17 -14
-22 3 -4 0 -8 -5 -8 -13 0 -13 2 -1 34 9 26 24 33 34 18z m76 -8 c0 -8 -5 -12
-10 -9 -6 4 -8 11 -5 16 9 14 15 11 15 -7z m-150 -23 c0 -5 -6 -14 -14 -20
-12 -10 -13 -8 -9 8 5 21 23 30 23 12z m1532 -50 c1 -23 -3 -46 -9 -52 -7 -7
-10 6 -8 43 4 63 4 63 10 56 3 -2 6 -24 7 -47z m-2258 24 c-4 -8 -8 -15 -10
-15 -2 0 -4 7 -4 15 0 8 4 15 10 15 5 0 7 -7 4 -15z m-163 -45 c5 0 9 -7 9
-15 0 -20 -46 -20 -54 0 -3 9 1 18 9 21 8 4 16 16 16 28 2 15 3 14 6 -6 2 -16
9 -28 14 -28z m537 -54 c2 -31 -3 -48 -13 -54 -12 -6 -17 -33 -21 -113 -6
-123 -11 -149 -25 -149 -7 0 -10 25 -7 73 3 66 1 73 -19 82 -12 5 -24 22 -27
38 -10 50 -8 59 13 52 14 -4 20 1 25 20 5 20 12 25 29 23 19 -3 22 2 25 35 4
51 18 47 20 -7z m1702 34 c0 -5 -5 -10 -11 -10 -5 0 -7 5 -4 10 3 6 8 10 11
10 2 0 4 -4 4 -10z m-1330 -14 c0 -3 -4 -8 -10 -11 -5 -3 -10 -1 -10 4 0 6 5
11 10 11 6 0 10 -2 10 -4z m-254 -33 c-10 -10 -19 5 -10 18 6 11 8 11 12 0 2
-7 1 -15 -2 -18z m1552 16 c-2 -6 -8 -10 -13 -10 -5 0 -11 4 -13 10 -2 6 4 11
13 11 9 0 15 -5 13 -11z m-2208 -14 c0 -8 -9 -15 -20 -15 -20 0 -26 11 -13 23
12 13 33 7 33 -8z m2392 -7 c-7 -7 -12 -8 -12 -2 0 14 12 26 19 19 2 -3 -1
-11 -7 -17z m-2408 -53 c-4 -8 -10 -15 -15 -15 -5 0 -9 7 -9 15 0 8 7 15 15
15 9 0 12 -6 9 -15z m626 5 c0 -5 -4 -10 -10 -10 -5 0 -10 5 -10 10 0 6 5 10
10 10 6 0 10 -4 10 -10z m-34 -64 c8 -32 -6 -58 -17 -30 -11 28 -11 54 1 54 5
0 12 -11 16 -24z m1761 2 c-3 -8 -6 -5 -6 6 -1 11 2 17 5 13 3 -3 4 -12 1 -19z
m-17 -60 c0 -17 -3 -28 -7 -24 -11 11 -12 67 -2 60 5 -3 9 -19 9 -36z m-1786
-171 c-15 -21 -16 -19 -10 48 13 132 19 145 23 47 3 -55 0 -78 -13 -95z m1697
110 c-13 -13 -15 -47 -2 -47 6 0 13 5 16 10 10 17 75 12 75 -5 0 -8 -7 -15
-15 -15 -8 0 -15 -4 -15 -9 0 -4 -18 -11 -41 -14 -22 -3 -49 -13 -60 -23 -15
-13 -22 -14 -33 -5 -10 8 -16 9 -21 1 -10 -17 -25 -11 -25 10 0 13 5 17 14 14
10 -4 13 0 10 13 -3 13 9 26 42 47 25 16 48 36 52 44 4 12 7 13 10 3 2 -7 -1
-18 -7 -24z m-936 -67 c3 -5 -1 -10 -10 -10 -9 0 -13 5 -10 10 3 6 8 10 10 10
2 0 7 -4 10 -10z m130 -20 c19 -21 55 -27 55 -9 0 5 5 7 10 4 6 -4 7 -11 4
-17 -5 -8 -1 -9 12 -4 30 13 46 12 51 -2 3 -7 -1 -10 -10 -6 -8 3 -18 1 -22
-5 -3 -6 -2 -11 3 -11 5 0 29 -18 53 -40 24 -22 50 -40 57 -40 7 0 15 -7 18
-15 4 -9 19 -15 40 -15 39 0 84 -25 84 -46 0 -17 -11 -18 -45 -2 -19 9 -28 9
-37 0 -15 -15 -55 -16 -63 -2 -3 6 -17 7 -31 4 -18 -5 -30 0 -47 18 -29 31
-126 95 -166 109 -35 12 -32 32 4 23 12 -3 26 -1 29 5 4 6 -5 13 -21 16 -91
20 -97 46 -12 54 9 0 24 -8 34 -19z m-915 -69 c0 -11 -4 -23 -10 -26 -6 -4
-10 5 -10 19 0 14 5 26 10 26 6 0 10 -9 10 -19z m620 1 c0 -4 -21 -19 -47 -32
-27 -14 -51 -29 -55 -35 -5 -6 -8 -6 -8 1 0 14 26 37 65 57 34 18 45 20 45 9z
m105 -138 c8 -20 13 -40 10 -44 -3 -5 -23 -11 -45 -15 -22 -4 -40 -11 -40 -17
0 -6 -11 -8 -25 -6 -14 3 -28 1 -31 -3 -3 -5 -16 -9 -30 -9 -37 0 -30 32 16
74 22 19 52 38 67 42 16 3 33 7 38 9 21 7 25 4 40 -31z m363 -51 c2 -8 -5 -13
-17 -13 -12 0 -21 -4 -21 -10 0 -13 -41 -13 -74 0 -40 15 -31 29 22 33 68 5
85 4 90 -10z m-398 -47 c-6 -8 -17 -13 -23 -10 -7 2 -30 -5 -52 -16 -42 -21
-65 -25 -65 -12 0 13 51 37 71 34 9 -2 20 2 24 8 3 5 18 10 32 10 21 0 23 -3
13 -14z m520 4 c0 -5 -7 -10 -16 -10 -8 0 -12 5 -9 10 3 6 10 10 16 10 5 0 9
-4 9 -10z m-114 -11 c3 -6 1 -15 -6 -19 -9 -5 -9 -9 -1 -14 6 -4 11 -2 11 3 0
6 6 11 14 11 7 0 19 7 26 15 14 17 30 20 30 6 0 -15 -62 -48 -105 -55 -29 -5
-36 -4 -25 3 8 6 12 11 7 11 -10 0 23 50 34 50 4 0 11 -5 15 -11z m-1082 -56
c8 -20 -1 -30 -36 -38 -18 -5 -28 -3 -28 4 0 6 9 11 19 11 22 0 36 26 18 34
-7 2 -5 5 4 5 9 1 20 -7 23 -16z m66 -65 c0 -5 -9 -12 -20 -15 -35 -9 -22 -21
30 -28 33 -5 50 -12 50 -21 0 -8 -7 -14 -15 -14 -9 0 -14 -8 -12 -22 1 -18 -3
-23 -18 -21 -11 1 -24 -5 -28 -13 -4 -8 -16 -14 -25 -14 -10 0 -22 -10 -27
-22 -6 -13 -28 -32 -50 -44 -25 -13 -41 -28 -43 -42 -2 -12 -16 -29 -31 -36
-15 -8 -33 -22 -40 -30 -7 -9 -17 -13 -22 -10 -18 11 -8 67 19 107 16 23 41
75 57 115 15 39 34 72 40 72 7 0 18 7 25 15 7 8 20 15 30 15 10 0 23 6 29 14
12 15 51 10 51 -6z m530 -138 c0 -5 -7 -7 -15 -4 -8 4 -12 10 -9 15 6 11 24 2
24 -11z m2417 -82 c-3 -8 -6 -5 -6 6 -1 11 2 17 5 13 3 -3 4 -12 1 -19z m153
2 c13 -8 12 -15 -6 -47 -17 -29 -29 -38 -50 -39 -35 -2 -74 37 -67 66 7 27 21
25 26 -2 3 -22 4 -22 12 -3 15 35 53 46 85 25z m-830 -15 c0 -8 -4 -15 -10
-15 -5 0 -10 7 -10 15 0 8 5 15 10 15 6 0 10 -7 10 -15z m451 -8 c-1 -4 -1
-16 -1 -28 0 -11 -4 -17 -10 -14 -14 8 -13 58 1 53 6 -2 10 -7 10 -11z m967
-84 c-10 -2 -18 -9 -18 -15 0 -6 -9 -8 -20 -5 -10 3 -24 -1 -31 -9 -6 -8 -22
-14 -36 -14 -20 0 -24 -4 -21 -22 3 -27 -16 -37 -20 -10 -2 10 10 31 25 48 25
25 37 30 83 31 30 0 47 -1 38 -4z m-991 -68 c0 -8 -4 -15 -9 -15 -10 0 -11 14
-1 23 9 10 10 9 10 -8z m278 -25 c-3 -5 -11 -10 -16 -10 -6 0 -7 5 -4 10 3 6
11 10 16 10 6 0 7 -4 4 -10z m299 -58 c30 -68 36 -123 22 -194 -6 -34 -10 -38
-37 -38 -19 0 -32 6 -36 18 -4 9 -20 36 -35 58 -57 86 -30 215 47 223 6 0 23
-30 39 -67z m-334 20 c0 -15 -11 -21 -27 -15 -12 5 -12 7 -1 14 17 11 28 11
28 1z m730 -17 c47 4 50 3 56 -22 9 -36 -3 -52 -72 -90 -59 -32 -59 -33 -60
-80 -1 -48 -19 -69 -31 -36 -3 10 -11 21 -17 25 -7 5 -11 47 -10 109 1 113 9
127 56 103 18 -9 45 -13 78 -9z m413 6 c19 -8 23 -15 19 -40 -5 -36 -28 -59
-69 -67 -26 -5 -37 -1 -67 27 -44 43 -50 70 -16 80 37 10 105 10 133 0z m284
-132 c71 -32 78 -81 15 -111 -22 -11 -26 -19 -24 -42 5 -41 -39 -83 -93 -92
-45 -6 -111 16 -128 43 -4 7 -14 13 -21 13 -15 0 -116 105 -116 120 0 5 5 12
10 15 6 4 8 11 5 16 -4 5 -2 9 4 9 5 0 12 -4 16 -9 3 -6 35 -8 71 -5 36 2 82
0 104 -5 43 -10 63 -2 55 22 -4 8 -1 25 5 37 12 23 25 22 97 -11z m-863 -28
c25 -27 18 -51 -11 -40 -16 6 -23 17 -23 34 0 30 11 32 34 6z m-3261 -36 c7
-18 -6 -27 -27 -19 -17 7 -20 16 -9 27 11 12 31 8 36 -8z m-65 -32 c-10 -2
-18 -10 -18 -18 0 -16 -38 -27 -47 -13 -9 15 26 38 56 37 17 -1 20 -3 9 -6z
m-673 -85 c-4 -10 -9 -18 -13 -19 -4 0 -19 -2 -34 -4 -19 -2 -28 1 -28 11 0 8
7 14 16 14 10 0 14 6 11 14 -3 8 1 20 9 26 8 7 14 20 14 29 1 9 7 1 16 -18 8
-19 12 -42 9 -53z m4345 16 c0 -7 6 -19 13 -26 35 -35 30 -78 -9 -70 -13 2
-24 7 -25 11 -1 3 -3 31 -5 61 -1 30 -8 56 -13 58 -6 2 -11 11 -11 20 0 13 7
9 25 -12 14 -16 25 -35 25 -42z m-3763 33 c-2 -7 -14 -14 -28 -15 -13 -2 -28
-8 -33 -13 -15 -14 -68 -11 -64 4 7 19 41 32 87 34 29 1 41 -2 38 -10z m-649
-18 c-2 -6 -8 -10 -13 -10 -5 0 -11 4 -13 10 -2 6 4 11 13 11 9 0 15 -5 13
-11z m502 -19 c-11 -20 -22 -25 -33 -14 -11 11 5 34 24 34 17 0 18 -3 9 -20z
m-53 -6 c4 -12 -66 -48 -75 -39 -8 8 50 55 62 51 6 -1 11 -7 13 -12z m-90 -83
c0 -20 -4 -28 -14 -24 -14 6 -16 14 -7 37 10 25 21 18 21 -13z m-37 -43 c0
-31 -13 -57 -31 -61 -15 -4 -18 -11 -14 -34 6 -33 -10 -66 -23 -45 -13 20 2
106 23 129 22 24 45 29 45 11z m30 -163 c0 -8 5 -15 11 -15 7 0 8 -7 4 -17 -4
-10 -8 -33 -9 -52 -1 -35 -26 -58 -26 -24 0 11 -5 24 -10 29 -15 15 -1 94 16
94 8 0 14 -7 14 -15z m2465 -135 c11 -5 15 -9 9 -9 -6 -1 -9 -12 -6 -26 4 -22
1 -25 -22 -25 -27 0 -35 14 -13 24 10 5 10 7 0 12 -7 3 -13 12 -13 20 0 16 15
17 45 4z m-88 -16 c-3 -3 -12 -4 -19 -1 -8 3 -5 6 6 6 11 1 17 -2 13 -5z m-7
-44 c0 -5 -9 -10 -19 -10 -11 0 -23 -4 -26 -10 -3 -5 -18 -10 -32 -10 -13 0
-38 -9 -55 -21 -16 -12 -32 -19 -35 -15 -8 8 17 36 31 36 7 0 30 9 52 20 42
21 84 26 84 10z m-180 -14 c0 -3 -4 -8 -10 -11 -5 -3 -10 -1 -10 4 0 6 5 11
10 11 6 0 10 -2 10 -4z m-90 -116 c0 -5 -9 -10 -21 -10 -11 0 -17 5 -14 10 3
6 13 10 21 10 8 0 14 -4 14 -10z m-130 -20 c0 -5 -5 -10 -11 -10 -5 0 -7 5 -4
10 3 6 8 10 11 10 2 0 4 -4 4 -10z m49 -47 c-17 -22 -43 -42 -47 -38 -5 5 41
54 52 54 5 1 2 -7 -5 -16z m-144 -13 c3 -5 1 -10 -4 -10 -6 0 -11 5 -11 10 0
6 2 10 4 10 3 0 8 -4 11 -10z m85 -40 c0 -5 -5 -10 -11 -10 -5 0 -7 5 -4 10 3
6 8 10 11 10 2 0 4 -4 4 -10z m-1795 -20 c3 -5 0 -10 -8 -10 -8 0 -26 -15 -41
-34 -48 -64 -76 -83 -76 -53 0 25 31 77 46 77 8 0 17 7 20 15 7 17 49 20 59 5z
m1660 -9 c3 -5 1 -12 -5 -16 -5 -3 -10 1 -10 9 0 18 6 21 15 7z m949 -32 c-7
-8 -14 -21 -14 -28 0 -7 -5 -9 -10 -6 -12 7 -4 42 13 63 8 10 12 10 18 0 5 -7
2 -19 -7 -29z m-2594 -20 c0 -5 -9 -9 -20 -9 -22 0 -23 1 -14 24 5 13 9 14 20
5 8 -6 14 -15 14 -20z m30 27 c0 -11 -19 -15 -25 -6 -3 5 1 10 9 10 9 0 16 -2
16 -4z m2029 -7 c35 -12 40 -28 11 -36 -11 -3 -20 -12 -20 -19 0 -8 -9 -14
-20 -14 -11 0 -20 -7 -20 -16 0 -8 -13 -20 -30 -25 -16 -6 -30 -15 -30 -20 0
-12 -40 -11 -41 1 -5 29 -2 35 21 40 14 3 26 11 26 18 1 7 2 16 3 22 1 12 49
60 60 60 4 0 22 -5 40 -11z m-509 -63 c0 -3 -4 -8 -10 -11 -5 -3 -10 -1 -10 4
0 6 5 11 10 11 6 0 10 -2 10 -4z m1040 -5 c0 -19 -22 -23 -38 -7 -15 15 -14
16 11 16 15 0 27 -4 27 -9z m-700 -88 c-1 -14 -27 -43 -39 -43 -6 0 -11 -4
-11 -9 0 -10 -56 -41 -73 -41 -15 0 95 99 111 100 6 0 12 -3 12 -7z m-140
-107 c0 -2 -7 -6 -15 -10 -8 -3 -15 -1 -15 4 0 6 7 10 15 10 8 0 15 -2 15 -4z
m-120 -66 c0 -5 -5 -10 -11 -10 -5 0 -7 5 -4 10 3 6 8 10 11 10 2 0 4 -4 4
-10z m-1760 -187 c25 0 62 -3 83 -7 34 -6 37 -9 37 -41 0 -24 -5 -35 -15 -35
-14 0 -19 -19 -18 -72 0 -10 -6 -18 -14 -18 -7 0 -13 -7 -13 -15 0 -8 5 -15
10 -15 22 0 8 -19 -25 -34 -37 -18 -44 -30 -22 -40 10 -5 10 -7 0 -12 -18 -8
-16 -29 8 -75 27 -53 20 -69 -31 -69 -38 0 -54 -13 -27 -23 19 -7 3 -17 -19
-11 -11 3 -24 15 -29 27 -6 12 -19 23 -30 23 -11 1 -27 5 -37 9 -11 4 -18 0
-23 -14 -3 -12 -11 -21 -16 -21 -12 0 -12 27 1 35 6 4 8 16 4 27 -5 17 -3 19
14 14 14 -5 27 0 41 15 23 25 30 50 40 152 5 39 12 81 16 92 8 18 7 19 -8 6
-15 -11 -17 -11 -17 2 0 8 7 21 16 28 12 9 15 24 11 52 -4 28 -2 36 6 29 7 -5
32 -9 57 -9z m-112 -157 c14 5 14 4 2 -4 -20 -15 -30 -5 -29 26 l2 27 4 -27
c3 -20 9 -25 21 -22z m-28 -64 c0 -21 -2 -24 -10 -12 -13 20 -13 53 0 45 6 -3
10 -18 10 -33z m-63 -264 c-3 -8 -6 -5 -6 6 -1 11 2 17 5 13 3 -3 4 -12 1 -19z
m91 -64 c-3 -14 -5 -12 -10 9 -3 19 -2 25 4 19 6 -6 8 -18 6 -28z m122 10 c0
-11 -5 -14 -17 -10 -9 4 -20 1 -25 -6 -5 -9 -8 -7 -8 7 0 15 7 21 25 23 17 1
25 -3 25 -14z m-74 -101 c-11 -11 -19 6 -11 24 8 17 8 17 12 0 3 -10 2 -21 -1
-24z m-59 2 c8 -9 13 -19 9 -22 -7 -7 -36 16 -36 28 0 13 10 11 27 -6z m118
-26 c6 -25 4 -27 -29 -31 -24 -3 -37 1 -41 10 -7 18 2 32 21 32 8 0 17 7 21
16 7 19 20 7 28 -27z m-157 -2 c2 -12 -3 -17 -17 -17 -12 0 -21 6 -21 13 0 31
32 34 38 4z m28 -63 c12 12 20 14 29 6 7 -6 20 -8 29 -4 9 3 16 2 16 -4 0 -5
-9 -12 -20 -15 -28 -7 -25 -23 10 -44 37 -22 37 -27 0 -43 -24 -10 -33 -10
-45 0 -22 19 -20 -15 3 -37 21 -22 18 -71 -4 -52 -8 6 -14 17 -14 24 0 7 -7
18 -15 25 -11 9 -12 16 -5 25 7 9 7 15 1 19 -5 4 -14 -2 -20 -11 -9 -16 -11
-14 -23 13 -8 19 -18 29 -27 26 -11 -4 -13 2 -8 27 10 48 27 62 54 44 20 -13
24 -13 39 1z m74 -144 c0 -5 -4 -10 -10 -10 -5 0 -10 5 -10 10 0 6 5 10 10 10
6 0 10 -4 10 -10z m-5 -30 c3 -5 1 -10 -4 -10 -6 0 -11 5 -11 10 0 6 2 10 4
10 3 0 8 -4 11 -10z"/>
<path d="M6345 4440 c-3 -5 1 -10 10 -10 9 0 13 5 10 10 -3 6 -8 10 -10 10 -2
0 -7 -4 -10 -10z"/>
<path d="M5310 1825 c0 -9 9 -15 25 -15 28 0 34 15 9 24 -25 10 -34 7 -34 -9z"/>
<path d="M5320 1771 c0 -12 29 -23 41 -15 5 3 7 10 4 15 -8 12 -45 12 -45 0z"/>
<path d="M5175 1180 c3 -5 16 -10 28 -9 21 0 21 1 2 9 -28 12 -37 12 -30 0z"/>
<path d="M6368 6242 c-5 -17 1 -21 39 -27 25 -3 47 -4 51 -1 3 3 -2 6 -11 6
-10 0 -17 8 -17 20 0 22 -25 28 -33 8 -4 -10 -8 -10 -15 0 -7 11 -10 9 -14 -6z"/>
<path d="M6525 6159 c-10 -15 3 -25 16 -12 7 7 7 13 1 17 -6 3 -14 1 -17 -5z"/>
<path d="M6692 6153 c4 -21 33 -25 33 -3 0 8 -8 16 -18 18 -14 3 -18 -1 -15
-15z"/>
<path d="M7040 6159 c0 -5 5 -7 10 -4 6 3 10 8 10 11 0 2 -4 4 -10 4 -5 0 -10
-5 -10 -11z"/>
<path d="M6406 6142 c-3 -5 8 -6 25 -4 16 2 29 6 29 8 0 8 -49 4 -54 -4z"/>
<path d="M6641 6083 c-1 -12 -7 -24 -13 -26 -10 -4 -10 -6 0 -6 15 -1 26 23
19 41 -3 7 -6 3 -6 -9z"/>
<path d="M4910 6075 c-19 -23 10 -49 58 -51 20 0 44 -3 52 -5 9 -2 16 4 18 19
3 16 -2 22 -16 22 -11 0 -22 4 -24 9 -1 5 -19 12 -39 16 -26 5 -39 2 -49 -10z"/>
<path d="M6360 6055 c0 -8 4 -15 10 -15 5 0 7 7 4 15 -4 8 -8 15 -10 15 -2 0
-4 -7 -4 -15z"/>
<path d="M6660 6050 c-13 -8 -13 -10 2 -10 9 0 20 5 23 10 8 13 -5 13 -25 0z"/>
<path d="M6645 6000 c-4 -6 5 -10 19 -10 14 0 26 5 26 10 0 6 -9 10 -19 10
-11 0 -23 -4 -26 -10z"/>
<path d="M6360 5989 c0 -5 5 -7 10 -4 6 3 10 8 10 11 0 2 -4 4 -10 4 -5 0 -10
-5 -10 -11z"/>
<path d="M5107 5960 c10 -11 19 -20 20 -20 2 0 3 9 3 20 0 13 -7 20 -20 20
-19 0 -19 -1 -3 -20z"/>
<path d="M5200 5965 c0 -8 2 -15 4 -15 2 0 6 7 10 15 3 8 1 15 -4 15 -6 0 -10
-7 -10 -15z"/>
<path d="M5251 5969 c15 -6 30 -20 33 -32 5 -18 8 -19 15 -7 13 19 -20 50 -51
49 -22 -1 -22 -1 3 -10z"/>
<path d="M5376 5915 c-3 -8 -1 -15 4 -15 6 0 10 7 10 15 0 8 -2 15 -4 15 -2 0
-6 -7 -10 -15z"/>
<path d="M5295 5883 c-20 -15 -19 -15 5 -9 14 3 31 6 38 6 7 0 10 5 7 10 -9
14 -27 12 -50 -7z"/>
<path d="M7665 5750 c-19 -8 -19 -9 3 -9 12 -1 22 4 22 9 0 6 -1 10 -2 9 -2 0
-12 -4 -23 -9z"/>
<path d="M5585 5710 c3 -5 8 -10 11 -10 2 0 4 5 4 10 0 6 -5 10 -11 10 -5 0
-7 -4 -4 -10z"/>
<path d="M6175 5550 c3 -5 8 -10 11 -10 2 0 4 5 4 10 0 6 -5 10 -11 10 -5 0
-7 -4 -4 -10z"/>
<path d="M6210 5521 c0 -19 22 -23 38 -7 15 15 14 16 -11 16 -15 0 -27 -4 -27
-9z"/>
<path d="M7810 5359 c0 -5 5 -7 10 -4 6 3 10 8 10 11 0 2 -4 4 -10 4 -5 0 -10
-5 -10 -11z"/>
<path d="M4705 4869 c-4 -6 -3 -14 3 -18 5 -3 11 -15 13 -26 4 -18 7 -17 32
10 15 16 27 33 27 37 0 16 -28 8 -35 -9 -6 -17 -7 -17 -20 0 -9 13 -15 15 -20
6z"/>
<path d="M4660 4779 c0 -11 5 -17 10 -14 6 3 10 13 10 21 0 8 -4 14 -10 14 -5
0 -10 -9 -10 -21z"/>
<path d="M5056 4708 c-4 -9 -3 -24 2 -34 12 -22 21 -5 12 26 -6 21 -8 22 -14
8z"/>
<path d="M4885 4660 c-3 -5 3 -10 15 -10 12 0 18 5 15 10 -3 6 -10 10 -15 10
-5 0 -12 -4 -15 -10z"/>
<path d="M4841 4644 c0 -11 3 -14 6 -6 3 7 2 16 -1 19 -3 4 -6 -2 -5 -13z"/>
<path d="M4791 4586 c-1 -24 2 -47 8 -50 5 -3 7 3 4 14 -3 11 0 27 7 36 11 12
11 18 -1 30 -13 13 -16 9 -18 -30z"/>
<path d="M5067 4604 c-11 -11 -8 -72 3 -79 6 -4 17 -2 24 4 7 6 22 8 32 5 18
-6 17 -5 -1 9 -11 8 -20 26 -20 38 0 23 -24 37 -38 23z"/>
<path d="M4830 4583 c0 -13 5 -23 10 -23 13 0 13 11 0 30 -8 12 -10 11 -10 -7z"/>
<path d="M4766 4465 c-3 -9 -2 -24 3 -33 9 -16 10 -16 16 0 4 9 2 24 -3 33 -8
16 -9 16 -16 0z"/>
<path d="M4932 4449 c2 -6 8 -10 13 -10 5 0 11 4 13 10 2 6 -4 11 -13 11 -9 0
-15 -5 -13 -11z"/>
<path d="M4590 4030 c0 -5 7 -10 15 -10 8 0 15 5 15 10 0 6 -7 10 -15 10 -8 0
-15 -4 -15 -10z"/>
<path d="M4565 4000 c3 -5 10 -10 16 -10 5 0 9 5 9 10 0 6 -7 10 -16 10 -8 0
-12 -4 -9 -10z"/>
<path d="M7650 3896 c0 -2 7 -6 15 -10 8 -3 15 -1 15 4 0 6 -7 10 -15 10 -8 0
-15 -2 -15 -4z"/>
<path d="M4440 3840 c0 -5 5 -10 10 -10 6 0 10 5 10 10 0 6 -4 10 -10 10 -5 0
-10 -4 -10 -10z"/>
<path d="M4685 3750 c-3 -5 1 -10 9 -10 9 0 16 5 16 10 0 6 -4 10 -9 10 -6 0
-13 -4 -16 -10z"/>
<path d="M8240 3714 c0 -8 5 -12 10 -9 6 3 10 10 10 16 0 5 -4 9 -10 9 -5 0
-10 -7 -10 -16z"/>
<path d="M4855 3623 c-77 -5 -86 -16 -20 -23 63 -7 111 3 100 20 -3 5 -12 9
-18 8 -7 -1 -34 -3 -62 -5z"/>
<path d="M7745 3191 c-45 -21 -93 -41 -107 -44 -18 -5 -25 -12 -22 -21 3 -8 1
-17 -5 -21 -18 -10 -13 -35 7 -35 10 0 27 7 39 15 12 8 31 16 43 18 11 2 30
11 41 20 10 9 29 17 42 18 12 0 36 9 52 20 17 11 42 25 58 31 41 18 33 33 -21
35 -37 2 -65 -6 -127 -36z"/>
<path d="M5090 3025 c0 -8 4 -15 10 -15 5 0 7 7 4 15 -4 8 -8 15 -10 15 -2 0
-4 -7 -4 -15z"/>
<path d="M7656 3033 c-11 -11 -6 -23 9 -23 8 0 15 4 15 9 0 13 -16 22 -24 14z"/>
<path d="M7993 2928 c2 -8 20 -13 42 -13 22 0 40 5 43 13 2 8 -10 12 -43 12
-33 0 -45 -4 -42 -12z"/>
<path d="M8106 2921 c-8 -13 -3 -15 79 -35 157 -38 208 -60 261 -111 11 -11
46 -42 78 -69 62 -54 91 -91 160 -207 32 -54 64 -91 113 -131 88 -72 113 -102
142 -163 20 -43 65 -122 109 -190 6 -11 17 -30 24 -42 18 -37 27 -26 23 28 -3
34 -11 59 -24 73 -25 26 -55 95 -52 118 1 9 -13 34 -32 55 -44 49 -107 155
-107 182 0 11 -9 22 -20 26 -11 3 -20 13 -20 21 0 8 -3 14 -8 14 -4 0 -21 12
-37 28 -16 15 -33 26 -37 25 -4 -2 -10 7 -14 20 -3 12 -19 33 -34 47 -15 14
-47 50 -71 80 -25 30 -57 68 -72 84 -28 30 -34 46 -17 46 43 0 -71 58 -169 85
-65 19 -266 30 -275 16z"/>
<path d="M7890 2840 c0 -5 6 -10 14 -10 8 0 18 5 21 10 3 6 -3 10 -14 10 -12
0 -21 -4 -21 -10z"/>
<path d="M7985 2840 c-3 -5 1 -10 9 -10 9 0 16 5 16 10 0 6 -4 10 -9 10 -6 0
-13 -4 -16 -10z"/>
<path d="M8020 2840 c0 -5 5 -10 10 -10 6 0 10 5 10 10 0 6 -4 10 -10 10 -5 0
-10 -4 -10 -10z"/>
<path d="M8590 2797 c27 -15 36 -14 25 2 -3 6 -16 11 -28 11 -21 0 -21 -1 3
-13z"/>
<path d="M8990 2337 c0 -3 15 -21 33 -40 17 -19 59 -65 92 -101 67 -75 85 -88
104 -77 9 6 2 15 -24 31 -39 24 -98 97 -90 110 13 20 -19 58 -52 65 -19 3 -41
9 -49 12 -8 3 -14 3 -14 0z"/>
<path d="M7955 2243 c4 -10 9 -33 10 -52 3 -25 1 -31 -8 -22 -19 19 -34 12
-44 -21 -9 -30 -11 -31 -19 -13 -10 25 -29 45 -42 45 -6 0 -12 4 -14 9 -4 11
-118 22 -118 12 0 -4 5 -12 12 -19 18 -18 2 -25 -31 -14 -25 9 -31 8 -31 -4 0
-16 -26 -20 -32 -4 -1 5 -18 14 -36 19 -30 9 -34 7 -59 -26 -19 -25 -32 -33
-47 -30 -45 11 -62 16 -81 22 -19 8 -20 7 -1 -7 22 -17 14 -38 -15 -38 -10 0
-19 -4 -19 -10 0 -14 -33 -13 -48 2 -6 6 -15 8 -19 4 -5 -4 1 -14 11 -22 18
-13 18 -14 2 -14 -22 0 -49 27 -41 40 3 5 1 10 -5 10 -6 0 -11 -10 -10 -22 4
-43 0 -48 -32 -48 -44 0 -67 -21 -85 -73 -5 -16 -7 -16 -17 -2 -9 13 -17 14
-38 6 -18 -7 -29 -7 -33 -1 -9 15 -25 12 -25 -5 0 -8 5 -15 10 -15 17 0 11
-30 -7 -37 -10 -4 -24 -13 -31 -20 -7 -7 -32 -12 -55 -12 -23 1 -35 3 -26 6
11 3 15 11 12 24 -3 10 -8 19 -12 19 -10 0 -40 -38 -35 -43 3 -3 -6 -14 -20
-25 -30 -23 -32 -32 -8 -33 10 0 12 -3 5 -6 -7 -2 -13 -13 -13 -24 0 -12 -7
-19 -19 -19 -23 0 -26 -4 -35 -46 -7 -30 -5 -31 18 -27 23 5 26 2 26 -21 0
-16 -5 -26 -15 -26 -8 0 -15 5 -15 10 0 6 -4 10 -10 10 -5 0 -10 -6 -10 -14 0
-8 -10 -16 -22 -18 -17 -2 -22 -9 -21 -25 2 -15 -8 -28 -32 -43 -20 -13 -35
-30 -35 -41 0 -10 -5 -19 -11 -19 -6 0 -9 -5 -7 -12 3 -7 -8 -23 -24 -36 -19
-16 -28 -33 -28 -52 0 -22 -7 -32 -31 -44 -17 -9 -35 -13 -40 -10 -11 7 -70
-37 -63 -48 3 -4 14 -8 24 -8 13 0 17 -5 14 -15 -4 -10 0 -15 12 -15 9 0 25
-7 35 -16 29 -26 189 -38 211 -16 6 6 17 8 25 5 7 -3 22 2 33 12 12 11 26 14
41 10 19 -6 21 -4 17 19 -4 21 -2 26 9 22 8 -3 24 1 36 9 23 16 46 5 48 -24 1
-9 4 -5 8 9 5 17 2 29 -8 37 -10 8 -2 7 21 -2 44 -18 58 -19 58 -5 0 6 -7 10
-15 10 -26 0 -16 16 18 27 17 6 75 10 127 8 70 -2 101 1 119 12 18 12 29 13
47 4 23 -10 24 -9 24 21 l0 31 23 -21 c25 -24 47 -15 47 20 0 16 5 18 34 13
20 -4 36 -2 40 4 11 17 39 13 32 -4 -3 -8 -1 -15 4 -15 6 0 10 7 10 15 0 19
11 19 36 0 26 -20 61 -19 73 3 10 16 11 15 17 -4 5 -18 13 -21 45 -20 38 2 52
-7 27 -17 -7 -3 1 -3 18 0 27 4 33 1 39 -18 6 -17 2 -27 -14 -40 -13 -11 -17
-20 -11 -24 6 -4 9 -12 8 -18 -1 -7 3 -22 10 -34 16 -29 0 -38 -23 -13 -17 19
-35 19 -35 -1 0 -6 5 -7 10 -4 6 3 10 1 10 -5 0 -6 -10 -8 -25 -4 -20 5 -25 2
-25 -12 0 -14 -3 -15 -12 -6 -7 7 -20 12 -29 12 -9 0 -19 10 -23 23 -10 39 -7
41 22 14 32 -31 42 -34 42 -12 0 8 -4 15 -10 15 -5 0 -10 6 -10 14 0 18 -38
28 -62 15 -22 -12 -23 -32 -3 -53 19 -19 19 -36 1 -36 -11 0 -13 -7 -6 -30 10
-36 -3 -40 -36 -9 -18 17 -26 19 -43 10 -12 -7 -21 -16 -21 -21 0 -15 -19 -12
-36 5 -19 19 -38 19 -53 1 -10 -12 -8 -17 8 -26 22 -11 28 -30 10 -30 -14 0
-39 26 -39 41 0 10 -3 10 -12 1 -8 -8 -17 -8 -30 -1 -18 10 -18 8 -8 -11 17
-32 -6 -81 -24 -51 -3 5 1 12 10 15 8 3 13 10 9 16 -11 18 -46 -13 -41 -36 3
-11 1 -35 -4 -53 -7 -27 -6 -37 10 -54 26 -28 19 -31 -19 -10 -31 18 -39 37
-21 48 15 9 12 44 -4 60 -12 12 -15 12 -19 1 -3 -8 1 -17 9 -20 18 -7 18 -30
0 -45 -12 -10 -17 -8 -25 7 -6 11 -24 25 -41 30 -16 6 -30 16 -30 21 0 6 -5
11 -11 11 -8 0 -8 -4 -2 -12 16 -20 25 -68 13 -68 -5 0 -10 -4 -10 -10 0 -5 7
-10 15 -10 8 0 15 -7 15 -15 0 -24 -23 -18 -58 15 -38 35 -56 39 -47 10 5 -17
1 -21 -24 -26 -17 -4 -31 -10 -31 -15 0 -5 -7 -9 -15 -9 -9 0 -12 -6 -9 -15 4
-8 12 -15 20 -15 8 0 14 7 14 15 0 17 16 20 25 5 4 -6 11 -8 16 -5 5 4 9 2 9
-3 0 -6 8 -8 18 -6 17 5 61 -20 52 -29 -3 -3 -17 -8 -32 -12 -20 -5 -31 -2
-45 14 -17 21 -43 28 -43 13 0 -4 5 -13 12 -20 6 -6 8 -15 4 -19 -4 -5 -18 4
-31 19 -12 14 -31 28 -41 30 -13 3 -18 11 -17 26 3 24 -7 28 -25 10 -6 -6 -15
-8 -19 -3 -5 4 -2 10 5 12 6 3 12 12 12 20 0 10 -5 13 -17 8 -10 -4 -26 -10
-36 -12 -13 -4 -18 -14 -16 -37 3 -54 -26 -93 -33 -44 -3 20 -11 24 -61 30
-43 6 -62 4 -72 -6 -16 -16 -4 -39 17 -31 18 7 33 -10 42 -48 9 -37 -20 -37
-35 1 l-11 27 -14 -30 c-13 -29 -14 -29 -20 -7 -8 28 -24 29 -24 1 0 -16 -4
-19 -20 -14 -24 8 -29 -20 -5 -29 8 -3 15 -10 15 -16 0 -6 -4 -9 -9 -6 -5 3
-12 -11 -16 -31 -4 -21 -18 -46 -36 -62 -16 -14 -29 -31 -29 -38 0 -7 -7 -10
-15 -7 -10 4 -15 0 -15 -15 0 -12 -6 -21 -13 -21 -8 0 -22 -9 -32 -20 -10 -11
-23 -20 -29 -20 -6 0 -24 -12 -41 -26 -16 -14 -42 -28 -57 -31 -16 -3 -28 -9
-28 -14 0 -5 -9 -9 -20 -9 -10 0 -24 -9 -30 -20 -9 -16 -15 -18 -30 -10 -16 9
-20 7 -20 -7 -1 -17 -1 -17 -14 -1 -16 22 -32 23 -44 2 -8 -14 -10 -14 -21 0
-8 9 -20 16 -27 16 -8 0 -23 5 -33 12 -16 10 -24 6 -55 -24 -38 -37 -72 -53
-81 -37 -3 5 15 18 40 30 42 20 62 36 54 43 -5 4 -168 -20 -173 -25 -2 -2 -9
-14 -15 -26 -17 -33 -45 -31 -37 2 5 18 2 27 -9 31 -8 4 -15 15 -15 25 0 10
-4 19 -10 19 -5 0 -9 -10 -7 -22 2 -18 -3 -23 -23 -23 -18 0 -24 5 -22 17 4
25 -18 33 -25 9 -7 -25 -31 -28 -40 -4 -4 10 -12 21 -19 26 -7 4 -11 14 -8 22
4 9 -6 19 -30 29 -20 8 -36 19 -35 23 3 20 -2 46 -8 40 -3 -4 -12 -2 -19 4 -8
7 -14 7 -18 0 -4 -6 2 -16 13 -22 10 -7 17 -19 14 -26 -3 -7 0 -20 7 -28 14
-17 0 -21 -17 -4 -7 7 -14 6 -24 -4 -23 -23 -42 -24 -61 -5 -23 23 -23 28 2
28 11 0 20 5 20 10 0 6 -8 10 -17 10 -15 0 -15 2 2 14 18 13 18 14 -3 20 -26
9 -29 26 -5 26 12 0 14 3 6 11 -6 6 -21 8 -33 4 -18 -6 -20 -9 -9 -16 9 -6 -1
-8 -28 -6 -26 2 -49 10 -60 22 -14 16 -32 20 -79 21 -54 0 -61 -2 -56 -18 3
-14 0 -17 -12 -12 -10 4 -15 13 -12 21 5 11 1 13 -17 7 -42 -13 -77 -45 -77
-69 0 -29 -25 -24 -33 6 -3 10 -11 19 -17 19 -8 0 -10 -9 -5 -27 4 -16 7 -40
6 -55 0 -18 6 -29 19 -33 11 -4 20 -11 20 -17 0 -15 60 -68 77 -68 18 0 16
-17 -3 -24 -16 -6 -16 -8 0 -24 20 -23 20 -32 0 -32 -13 0 -14 -3 -4 -14 6 -8
17 -13 24 -10 7 3 25 0 40 -6 35 -13 56 1 56 36 0 17 -6 24 -19 24 -28 0 -35
17 -9 23 26 7 38 1 38 -19 0 -11 8 -14 28 -12 18 2 27 -2 28 -12 1 -14 8 -46
21 -93 2 -9 11 -17 19 -17 8 0 14 -5 14 -11 0 -11 -16 -9 -51 5 -13 6 -16 2
-12 -17 3 -16 11 -23 26 -23 13 1 23 -6 25 -16 2 -13 -1 -16 -12 -12 -9 3 -16
1 -16 -5 0 -6 9 -11 20 -11 11 0 20 -5 20 -11 0 -6 -6 -9 -14 -6 -14 6 -36
-10 -36 -26 0 -5 9 -7 19 -4 14 3 18 1 14 -9 -7 -19 24 -29 43 -13 10 8 14 25
12 48 -2 28 1 37 15 39 20 4 22 -9 5 -26 -9 -9 -8 -15 8 -27 24 -18 34 -19 34
-1 0 9 12 16 33 18 24 2 33 8 35 25 2 13 -1 23 -7 23 -6 0 -11 7 -11 15 0 18
14 19 42 4 26 -14 49 4 30 23 -7 7 -12 17 -12 23 0 16 48 37 55 25 4 -6 1 -10
-4 -10 -6 0 -11 -7 -11 -15 0 -8 9 -15 20 -15 23 0 41 -31 22 -38 -7 -2 -12
-10 -12 -17 0 -15 -21 -25 -58 -26 l-27 -1 30 -9 c16 -4 32 -5 35 0 3 4 17 11
32 14 22 6 25 4 21 -12 -3 -12 2 -20 14 -23 10 -3 27 -9 38 -14 17 -7 17 -5
-3 17 l-23 24 25 5 c14 3 35 13 46 22 11 10 22 18 25 18 7 0 -18 -43 -32 -55
-6 -5 -13 -23 -15 -40 -3 -26 -7 -30 -39 -32 -30 -3 -38 1 -42 17 -3 12 -14
20 -26 20 -18 0 -21 -6 -21 -49 0 -32 -5 -53 -16 -61 -13 -11 -16 -10 -21 8
-3 13 -13 22 -25 22 -14 0 -18 -5 -14 -16 3 -9 6 -22 6 -30 0 -11 22 -14 109
-14 94 0 110 2 116 17 6 17 7 17 19 1 12 -17 73 -18 1029 -18 l1017 0 -7 33
c-3 17 -13 37 -21 43 -18 13 -9 19 42 28 36 7 38 9 32 37 -4 22 -1 34 14 46
24 21 26 39 5 50 -13 7 -13 13 -3 35 9 19 23 28 49 32 47 8 60 25 55 70 -3 20
-1 48 4 62 8 20 5 33 -16 65 -30 48 -23 66 11 27 29 -34 62 -39 45 -8 -6 12
-8 31 -4 43 6 19 5 20 -9 9 -11 -10 -17 -10 -22 -1 -4 6 -1 15 6 20 11 6 11
11 1 21 -6 6 -12 16 -12 20 0 14 49 -26 50 -39 0 -16 16 -17 26 -1 4 6 -1 17
-10 23 -15 12 -15 13 0 19 12 4 14 13 10 31 -7 29 8 65 28 65 17 0 14 89 -4
100 -15 10 -9 41 10 50 8 4 24 12 36 17 13 7 26 7 37 1 10 -5 22 -6 27 -3 12
7 13 45 2 45 -5 0 -15 11 -22 25 -7 14 -20 25 -27 25 -8 0 -11 5 -8 11 4 6 13
8 21 5 7 -3 25 1 39 8 l26 14 -41 43 c-22 24 -40 48 -40 54 0 5 4 4 9 -3 6
-11 17 -11 45 -4 20 6 36 7 36 2 0 -4 7 -11 15 -14 14 -5 13 -1 -2 26 -13 23
-15 32 -5 35 6 3 12 15 12 27 0 12 -6 28 -12 35 -11 10 -7 18 18 39 31 27 42
47 51 92 6 32 12 38 22 21 6 -9 11 -10 15 -2 4 6 0 21 -8 33 -16 26 -14 74 2
71 6 -2 11 5 11 15 3 56 15 112 33 148 21 40 21 41 2 82 -17 36 -29 46 -70 57
-6 1 -19 -10 -30 -26 -10 -16 -24 -27 -30 -25 -6 2 -9 -8 -6 -26 3 -21 1 -29
-7 -24 -7 5 -11 -1 -11 -13 0 -16 -6 -21 -24 -21 -21 0 -25 -5 -28 -37 -3 -33
-6 -38 -28 -38 -14 0 -28 -8 -35 -20 -6 -12 -18 -19 -27 -17 -14 3 -18 -3 -18
-22 0 -19 -5 -26 -20 -26 -14 0 -21 -9 -26 -35 -5 -29 -10 -34 -25 -30 -16 5
-19 1 -19 -25 0 -28 -3 -31 -22 -25 -13 4 -35 19 -50 33 -25 23 -41 20 -19 -3
4 -6 13 -30 19 -55 9 -35 8 -48 -2 -58 -15 -15 -46 -6 -46 14 0 20 18 17 23
-3 3 -10 4 -1 2 19 -4 47 -9 54 -47 74 -41 21 -47 10 -14 -25 l28 -29 -21 -21
c-12 -12 -21 -30 -21 -41 0 -27 -26 -25 -34 3 -10 37 -7 57 10 57 8 0 12 5 8
11 -4 8 -9 8 -17 0 -16 -16 -27 -14 -27 5 0 9 8 23 18 30 14 11 15 16 4 31 -6
10 -15 24 -19 31 -10 24 -49 58 -60 55 -13 -5 -63 40 -63 56 0 15 15 14 28 -2
15 -18 63 -19 86 -2 20 15 19 15 -2 44 -28 38 -40 85 -21 79 8 -3 14 -10 14
-17 0 -17 25 -31 57 -31 15 0 30 -4 33 -10 9 -15 45 -12 45 3 0 17 -58 67 -79
68 -9 1 -5 4 9 8 14 4 27 4 28 -1 2 -4 13 -8 23 -8 11 0 17 5 14 10 -3 6 -3
15 0 20 10 16 35 -8 36 -34 0 -11 3 -15 6 -8 2 6 17 12 31 13 26 0 26 1 5 9
-29 12 -62 62 -45 68 6 2 12 11 12 19 0 13 -3 13 -25 -1 -28 -19 -30 -17 -13
19 12 27 37 27 69 -1 8 -8 26 -14 38 -14 19 0 21 4 15 23 -8 25 -24 49 -42 60
-10 6 -9 14 5 38 18 30 40 41 29 14 -7 -18 3 -45 16 -45 12 0 32 22 36 40 6
25 24 41 40 35 21 -8 62 22 62 44 0 10 9 25 21 33 19 12 20 17 10 53 -7 26 -7
43 -1 49 16 16 12 34 -12 55 -18 18 -19 22 -7 37 13 16 12 16 -8 3 -13 -8 -23
-17 -23 -22 0 -19 -20 6 -21 26 l0 22 -9 -22 c-6 -16 -14 -21 -26 -16 -14 5
-16 2 -10 -21 6 -23 4 -27 -11 -24 -10 2 -19 13 -21 26 -2 12 -8 23 -13 23 -5
1 -14 2 -19 3 -6 0 -15 8 -20 16 -7 11 -12 12 -20 4 -14 -14 -1 -47 16 -40 9
3 14 -2 14 -13 0 -22 -28 -35 -45 -21 -8 6 -15 6 -23 -2 -9 -9 -12 -6 -12 15
0 46 -13 77 -31 77 -7 0 -8 -7 -4 -17z m-155 -68 c11 -13 10 -14 -4 -9 -9 3
-16 10 -16 15 0 13 6 11 20 -6z m-216 -60 c23 -17 13 -34 -11 -19 -19 12 -29
34 -16 34 4 0 17 -7 27 -15z m287 -60 c-3 -5 -7 0 -9 12 -2 12 -13 25 -25 29
-21 7 -21 7 -2 14 16 6 22 1 31 -19 6 -14 8 -30 5 -36z m85 31 c3 -8 4 -23 2
-33 -3 -16 -5 -16 -26 5 -12 12 -20 27 -17 32 9 15 35 12 41 -4z m58 -11 c3
-8 1 -15 -4 -15 -6 0 -10 7 -10 15 0 8 2 15 4 15 2 0 6 -7 10 -15z m-519 -5
c3 -5 -1 -10 -10 -10 -9 0 -13 5 -10 10 3 6 8 10 10 10 2 0 7 -4 10 -10z m324
-47 c2 -2 2 -6 -1 -9 -8 -7 -68 46 -68 60 0 5 15 -3 32 -20 18 -16 35 -30 37
-31z m-195 33 c-10 -8 -21 -12 -24 -10 -5 6 21 24 34 24 6 0 1 -6 -10 -14z
m246 -92 c0 -11 -6 -14 -16 -10 -9 3 -22 6 -29 6 -7 0 -16 7 -19 16 -4 12 -2
15 9 10 8 -3 15 -1 15 5 0 6 7 6 20 -1 11 -6 20 -18 20 -26z m240 6 c0 -5 -4
-10 -10 -10 -5 0 -10 5 -10 10 0 6 5 10 10 10 6 0 10 -4 10 -10z m-103 -62
c-3 -8 -6 -5 -6 6 -1 11 2 17 5 13 3 -3 4 -12 1 -19z m-1057 -54 c0 -2 -9 -4
-21 -4 -11 0 -18 4 -14 10 5 8 35 3 35 -6z m-30 -34 c0 -5 -4 -10 -9 -10 -6 0
-13 5 -16 10 -3 6 1 10 9 10 9 0 16 -4 16 -10z m710 -20 c0 -5 -4 -10 -10 -10
-5 0 -10 5 -10 10 0 6 5 10 10 10 6 0 10 -4 10 -10z m-760 -64 c0 -11 -19 -15
-25 -6 -3 5 1 10 9 10 9 0 16 -2 16 -4z m1025 -76 c-3 -5 -11 -10 -16 -10 -6
0 -7 5 -4 10 3 6 11 10 16 10 6 0 7 -4 4 -10z m-1065 -18 c0 -4 -9 -13 -19
-19 -16 -10 -18 -9 -14 8 5 18 33 28 33 11z m810 -82 c0 -5 10 -10 23 -10 32
0 46 -12 44 -37 -1 -19 -3 -20 -17 -9 -8 7 -27 16 -42 20 -19 4 -28 13 -28 26
0 11 5 20 10 20 6 0 10 -4 10 -10z m128 -88 c2 -7 -2 -10 -12 -6 -9 3 -16 11
-16 16 0 13 23 5 28 -10z m-343 -2 c3 -5 1 -10 -4 -10 -6 0 -11 5 -11 10 0 6
2 10 4 10 3 0 8 -4 11 -10z m625 -126 c0 -8 -4 -12 -10 -9 -5 3 -10 10 -10 16
0 5 5 9 10 9 6 0 10 -7 10 -16z m-190 -125 c0 -11 -4 -17 -10 -14 -5 3 -11 1
-11 -4 -1 -6 -3 -15 -4 -21 -1 -5 -3 -17 -4 -25 -2 -22 -28 -18 -45 7 -18 26
-21 48 -6 48 6 0 10 -7 10 -15 0 -27 18 -16 25 15 8 36 45 44 45 9z m-145 -18
c3 -5 1 -12 -5 -16 -5 -3 -10 1 -10 9 0 18 6 21 15 7z m25 -47 c8 -20 6 -31
-10 -51 -11 -14 -20 -21 -20 -15 0 6 5 14 11 18 6 4 8 20 4 40 -7 40 1 45 15
8z m-134 -16 c7 -8 -14 -48 -25 -48 -5 0 -11 8 -15 18 -3 9 -8 22 -11 27 -5
11 40 13 51 3z m-130 -49 c3 -6 0 -15 -7 -20 -22 -14 -29 -11 -29 11 0 21 24
27 36 9z m-236 -39 c0 -5 -5 -10 -11 -10 -5 0 -7 5 -4 10 3 6 8 10 11 10 2 0
4 -4 4 -10z m24 -35 c-4 -8 -10 -15 -15 -15 -4 0 -6 7 -3 15 4 8 10 15 15 15
4 0 6 -7 3 -15z m246 -5 c0 -5 -4 -10 -10 -10 -5 0 -10 5 -10 10 0 6 5 10 10
10 6 0 10 -4 10 -10z m-67 -6 c3 -3 3 -13 0 -21 -5 -12 -7 -12 -14 -1 -15 23
-4 40 14 22z m137 -24 c0 -5 -4 -10 -10 -10 -5 0 -10 5 -10 10 0 6 5 10 10 10
6 0 10 -4 10 -10z m-157 -60 c3 -11 2 -20 -3 -20 -12 0 -31 26 -23 33 11 12
21 7 26 -13z m807 10 c0 -5 -2 -10 -4 -10 -3 0 -8 5 -11 10 -3 6 -1 10 4 10 6
0 11 -4 11 -10z m-1000 -53 c16 4 20 0 20 -17 0 -19 -4 -21 -27 -15 -37 9 -47
20 -39 42 7 16 8 17 17 1 5 -10 17 -14 29 -11z m260 -16 c0 -6 12 -16 28 -23
16 -8 28 -23 30 -37 3 -21 1 -21 -26 10 -17 19 -34 31 -38 26 -4 -4 5 -20 20
-36 16 -17 25 -34 21 -41 -14 -23 -63 51 -57 88 3 21 22 32 22 13z m-630 -20
c0 -5 -7 -11 -14 -14 -10 -4 -13 -1 -9 9 6 15 23 19 23 5z m321 -26 c12 4 19
2 19 -8 0 -9 -9 -12 -30 -9 -23 3 -30 9 -30 26 1 19 1 20 11 3 7 -12 17 -16
30 -12z m157 -23 c2 -11 12 -22 23 -25 11 -3 18 -10 17 -15 -2 -5 8 -19 22
-31 14 -13 19 -20 13 -16 -7 3 -13 2 -13 -3 0 -5 14 -12 30 -16 17 -3 33 -13
36 -21 8 -21 -3 -32 -18 -17 -7 7 -26 12 -44 12 -25 0 -33 5 -38 23 -3 13 -16
35 -29 49 -13 14 -33 44 -45 66 l-21 41 32 -14 c18 -7 33 -22 35 -33z m68 11
c-4 -4 -11 -1 -16 7 -16 25 -11 35 7 17 9 -9 13 -20 9 -24z m-304 -14 c19 -20
29 -79 13 -76 -5 1 -9 9 -8 18 1 9 -8 28 -20 41 -12 13 -29 33 -37 43 -14 17
-14 18 10 5 14 -7 33 -21 42 -31z m1036 -1 c17 -17 15 -28 -7 -28 -22 0 -35
15 -26 30 8 13 18 13 33 -2z m-872 -22 c26 -14 63 -76 45 -76 -5 0 -11 7 -15
15 -3 8 -13 15 -22 15 -8 0 -24 10 -35 23 -32 39 -22 48 27 23z m-356 -12 c0
-8 -5 -12 -10 -9 -6 4 -8 11 -5 16 9 14 15 11 15 -7z m550 -5 c0 -5 -4 -9 -10
-9 -5 0 -10 7 -10 16 0 8 5 12 10 9 6 -3 10 -10 10 -16z m-465 -9 c10 -11 13
-20 7 -20 -6 0 -16 9 -22 20 -6 11 -9 20 -7 20 2 0 12 -9 22 -20z m170 -39
c-3 -6 -11 -11 -17 -11 -6 0 -6 6 2 15 14 17 26 13 15 -4z m55 -1 c0 -5 7 -7
15 -4 10 4 15 0 16 -12 0 -11 3 -14 6 -6 6 16 23 16 23 -1 0 -19 47 -38 76
-31 17 5 24 2 24 -9 0 -10 -7 -14 -22 -10 -14 3 -19 1 -13 -4 29 -22 56 -74
50 -94 -7 -20 -8 -20 -41 12 -19 18 -34 41 -34 51 0 27 -17 22 -24 -8 -5 -20
-1 -33 16 -52 13 -14 16 -22 8 -18 -8 3 -22 9 -30 12 -17 6 -93 114 -86 121 5
5 56 -49 56 -59 0 -5 5 -8 10 -8 6 0 10 9 10 20 0 11 -6 20 -12 20 -16 0 -79
75 -71 84 10 9 23 7 23 -4z m-473 -6 c-3 -3 -12 -4 -19 -1 -8 3 -5 6 6 6 11 1
17 -2 13 -5z m-1417 -39 c0 -8 -7 -15 -15 -15 -16 0 -20 12 -8 23 11 12 23 8
23 -8z m2685 -15 c-3 -5 -10 -10 -16 -10 -5 0 -9 5 -9 10 0 6 7 10 16 10 8 0
12 -4 9 -10z m-2735 -10 c0 -5 -7 -10 -16 -10 -8 0 -12 5 -9 10 3 6 10 10 16
10 5 0 9 -4 9 -10z m1875 -10 c4 -11 11 -18 16 -15 10 7 13 -18 3 -28 -12 -12
-64 23 -64 43 0 27 37 26 45 0z m261 -7 c-10 -10 -19 5 -10 18 6 11 8 11 12 0
2 -7 1 -15 -2 -18z m-436 -10 c0 -20 -24 -11 -28 10 -2 12 1 15 12 11 9 -3 16
-13 16 -21z m-1715 -33 c-3 -5 -10 -10 -16 -10 -5 0 -9 5 -9 10 0 6 7 10 16
10 8 0 12 -4 9 -10z m108 -24 c16 -13 16 -14 -5 -19 -25 -7 -44 5 -34 22 9 14
17 13 39 -3z m1697 -36 c0 -5 -7 -7 -15 -4 -8 4 -12 10 -9 15 6 11 24 2 24
-11z m-1490 -10 c0 -11 4 -20 10 -20 5 0 14 9 20 20 15 28 30 25 30 -5 0 -17
9 -29 31 -41 18 -9 27 -19 22 -23 -5 -3 -12 -16 -15 -28 -5 -18 -2 -23 13 -23
10 0 19 -6 19 -14 0 -8 7 -16 15 -20 22 -8 18 -36 -5 -36 -11 0 -20 5 -20 12
0 14 -71 78 -87 78 -32 0 -78 92 -56 113 12 13 23 7 23 -13z m970 -6 c0 -16
-16 -19 -25 -4 -8 13 4 32 16 25 5 -4 9 -13 9 -21z m-785 -33 c7 -12 -12 -24
-25 -16 -11 7 -4 25 10 25 5 0 11 -4 15 -9z m-345 -43 c0 -16 -3 -19 -11 -11
-6 6 -8 16 -5 22 11 17 16 13 16 -11z m40 6 c0 -8 -4 -12 -10 -9 -5 3 -10 10
-10 16 0 5 5 9 10 9 6 0 10 -7 10 -16z m840 6 c0 -5 -7 -10 -16 -10 -8 0 -12
5 -9 10 3 6 10 10 16 10 5 0 9 -4 9 -10z m-160 -10 c0 -5 -7 -10 -15 -10 -8 0
-15 5 -15 10 0 6 7 10 15 10 8 0 15 -4 15 -10z m664 -5 c-4 -8 -10 -12 -15 -9
-14 8 -10 24 6 24 9 0 12 -6 9 -15z m-830 -17 c-4 -6 -22 -8 -40 -5 -33 6 -54
-6 -34 -18 5 -3 10 -10 10 -16 0 -5 -9 -4 -20 3 -24 16 -26 45 -3 50 32 6 93
-4 87 -14z m-419 -8 c3 -5 1 -10 -4 -10 -6 0 -11 5 -11 10 0 6 2 10 4 10 3 0
8 -4 11 -10z m285 -10 c12 -12 18 -25 15 -30 -9 -15 -22 -12 -29 8 -3 9 -9 23
-12 30 -9 18 3 15 26 -8z m-76 -16 c3 -8 -1 -14 -9 -14 -8 0 -15 2 -15 4 0 2
-3 12 -6 20 -4 12 -2 15 9 10 9 -3 18 -12 21 -20z m-286 4 c7 -7 12 -20 12
-30 0 -10 7 -18 15 -18 8 0 15 -7 15 -15 0 -19 -2 -19 -28 4 -12 10 -22 28
-22 41 0 19 -2 20 -15 10 -8 -7 -15 -23 -15 -36 0 -15 -6 -24 -15 -24 -22 0
-18 32 5 58 24 25 31 27 48 10z m1802 -28 c0 -14 -14 -12 -28 2 -19 19 -14 30
8 18 11 -6 20 -15 20 -20z m761 17 c-1 -12 -15 -9 -19 4 -3 6 1 10 8 8 6 -3
11 -8 11 -12z m-2461 -16 c0 -5 -7 -14 -15 -21 -8 -7 -15 -23 -15 -37 0 -14
-4 -21 -10 -18 -15 9 -12 32 6 60 16 25 34 33 34 16z m291 -42 c-16 -25 -21
-29 -21 -15 0 19 29 60 37 52 2 -2 -5 -19 -16 -37z m88 27 c9 -10 8 -16 -4
-26 -13 -11 -15 -8 -15 14 0 30 3 32 19 12z m241 0 c0 -8 -4 -17 -9 -21 -12
-7 -24 12 -16 25 9 15 25 12 25 -4z m-370 -1 c0 -3 -9 -15 -20 -27 -15 -16
-20 -18 -20 -7 0 8 5 20 12 27 12 12 28 16 28 7z m-350 -50 c0 -8 -4 -15 -10
-15 -5 0 -10 7 -10 15 0 8 5 15 10 15 6 0 10 -7 10 -15z m440 -9 c0 -15 -18
-31 -26 -23 -7 7 7 37 17 37 5 0 9 -6 9 -14z m-125 -46 c-3 -5 -11 -10 -16
-10 -6 0 -7 5 -4 10 3 6 11 10 16 10 6 0 7 -4 4 -10z m2115 -11 c7 -11 9 -23
6 -26 -8 -9 -36 17 -36 33 0 21 18 17 30 -7z m-2020 -9 c0 -5 -4 -10 -10 -10
-5 0 -10 5 -10 10 0 6 5 10 10 10 6 0 10 -4 10 -10z m89 -14 c-12 -10 -49 -16
-49 -7 0 5 10 11 23 13 22 4 34 1 26 -6z m1041 -15 c0 -6 -4 -13 -10 -16 -5
-3 -10 1 -10 9 0 9 5 16 10 16 6 0 10 -4 10 -9z m-1077 -71 c3 -11 2 -20 -3
-20 -4 0 -10 9 -13 20 -3 11 -2 20 3 20 4 0 10 -9 13 -20z"/>
<path d="M7900 2220 c0 -11 5 -20 10 -20 6 0 10 9 10 20 0 11 -4 20 -10 20 -5
0 -10 -9 -10 -20z"/>
<path d="M7490 2146 c0 -2 7 -7 16 -10 8 -3 12 -2 9 4 -6 10 -25 14 -25 6z"/>
<path d="M9250 2095 c0 -8 6 -15 14 -15 8 0 23 -3 33 -6 13 -4 11 0 -7 15 -30
25 -40 26 -40 6z"/>
<path d="M8236 1985 c-3 -8 -1 -15 3 -15 5 0 11 7 15 15 3 8 1 15 -3 15 -5 0
-11 -7 -15 -15z"/>
<path d="M8160 1930 c0 -5 5 -10 10 -10 6 0 10 5 10 10 0 6 -4 10 -10 10 -5 0
-10 -4 -10 -10z"/>
<path d="M9100 1926 c0 -8 5 -18 10 -21 6 -3 10 3 10 14 0 12 -4 21 -10 21 -5
0 -10 -6 -10 -14z"/>
<path d="M9131 1814 c4 -30 12 -76 18 -102 6 -26 20 -105 31 -175 11 -71 22
-133 26 -138 22 -36 30 73 9 124 -7 18 -13 56 -14 85 -2 60 -22 145 -45 190
-9 17 -16 38 -16 46 0 8 -4 17 -8 20 -5 3 -5 -20 -1 -50z"/>
<path d="M6810 1830 c0 -5 5 -10 10 -10 6 0 10 5 10 10 0 6 -4 10 -10 10 -5 0
-10 -4 -10 -10z"/>
<path d="M6753 1819 c-26 -10 -28 -18 -10 -43 12 -17 14 -16 31 9 21 31 11 47
-21 34z"/>
<path d="M6695 1720 c-3 -5 -1 -10 4 -10 6 0 11 5 11 10 0 6 -2 10 -4 10 -3 0
-8 -4 -11 -10z"/>
<path d="M8482 1624 c4 -21 22 -23 26 -1 2 10 -3 17 -13 17 -10 0 -15 -6 -13
-16z"/>
<path d="M7877 1593 c-11 -20 -17 -82 -7 -88 5 -3 11 0 11 7 2 22 5 32 13 51
9 18 -7 47 -17 30z"/>
<path d="M6580 1474 c-13 -33 -13 -44 1 -44 14 0 38 30 39 46 0 7 -7 15 -15
18 -11 4 -19 -3 -25 -20z"/>
<path d="M7940 1456 c0 -9 7 -16 16 -16 17 0 14 22 -4 28 -7 2 -12 -3 -12 -12z"/>
<path d="M8046 1461 c-4 -7 -5 -15 -2 -18 9 -9 19 4 14 18 -4 11 -6 11 -12 0z"/>
<path d="M4986 1421 c-4 -7 -5 -15 -2 -18 9 -9 19 4 14 18 -4 11 -6 11 -12 0z"/>
<path d="M7600 1426 c0 -2 7 -7 16 -10 8 -3 12 -2 9 4 -6 10 -25 14 -25 6z"/>
<path d="M6550 1393 c0 -25 1 -26 16 -11 9 9 13 21 10 27 -13 20 -26 11 -26
-16z"/>
<path d="M7710 1395 c7 -8 19 -15 27 -15 13 0 13 3 3 15 -7 8 -19 15 -27 15
-13 0 -13 -3 -3 -15z"/>
<path d="M7576 1376 c10 -8 21 -12 24 -10 5 6 -21 24 -34 24 -6 0 -1 -6 10
-14z"/>
<path d="M7590 1337 c0 -7 9 -18 20 -25 17 -11 20 -10 20 7 0 10 -7 22 -16 25
-22 8 -24 8 -24 -7z"/>
<path d="M5007 1254 c-8 -8 1 -24 14 -24 5 0 9 7 9 15 0 15 -12 20 -23 9z"/>
<path d="M6502 1249 c2 -7 10 -15 17 -17 8 -3 12 1 9 9 -2 7 -10 15 -17 17 -8
3 -12 -1 -9 -9z"/>
<path d="M7528 1253 c6 -2 12 -11 12 -19 0 -8 6 -11 15 -8 20 8 0 34 -24 33
-10 0 -11 -2 -3 -6z"/>
<path d="M8340 1250 c0 -5 5 -10 10 -10 6 0 10 5 10 10 0 6 -4 10 -10 10 -5 0
-10 -4 -10 -10z"/>
<path d="M8760 1175 c0 -15 4 -24 10 -20 6 3 10 12 10 20 0 8 -4 17 -10 20 -6
4 -10 -5 -10 -20z"/>
<path d="M7291 1173 c-1 -6 -4 -20 -7 -30 -5 -17 -5 -17 6 0 6 10 9 23 6 30
-3 9 -5 9 -5 0z"/>
<path d="M7340 1164 c0 -8 5 -12 10 -9 6 3 10 10 10 16 0 5 -4 9 -10 9 -5 0
-10 -7 -10 -16z"/>
<path d="M7315 1140 c3 -5 8 -10 11 -10 2 0 4 5 4 10 0 6 -5 10 -11 10 -5 0
-7 -4 -4 -10z"/>
<path d="M4240 1130 c0 -5 5 -10 10 -10 6 0 10 5 10 10 0 6 -4 10 -10 10 -5 0
-10 -4 -10 -10z"/>
<path d="M8492 1116 c1 -14 6 -22 10 -20 12 7 10 44 -2 44 -5 0 -9 -11 -8 -24z"/>
<path d="M3993 1103 c-13 -8 -23 -21 -23 -29 0 -8 -6 -11 -15 -8 -8 4 -15 3
-15 -1 0 -3 7 -13 15 -21 8 -9 15 -11 15 -5 0 6 8 11 19 11 10 0 24 7 31 15 7
9 19 14 27 11 9 -4 13 3 13 19 0 19 -5 25 -22 24 -13 0 -33 -7 -45 -16z"/>
<path d="M6270 1075 c0 -9 -6 -12 -17 -8 -13 5 -15 2 -10 -11 4 -9 3 -24 -2
-34 -29 -55 -42 -96 -37 -118 5 -17 2 -24 -9 -24 -8 0 -15 -6 -15 -14 0 -8 -6
-17 -12 -20 -9 -3 -8 -8 5 -16 12 -8 15 -18 11 -34 -7 -28 11 -43 31 -26 7 6
29 12 49 13 21 2 41 10 49 21 8 11 21 17 29 13 10 -3 25 4 39 19 22 24 22 24
3 39 -18 14 -17 15 15 12 30 -2 35 2 42 25 7 26 6 28 -19 21 -26 -6 -27 -6 -8
13 17 16 17 19 4 22 -15 3 -32 36 -29 56 1 4 -1 17 -5 29 -6 20 -7 20 -21 1
-14 -19 -15 -19 -32 3 -10 12 -21 19 -25 16 -3 -4 -6 -1 -6 5 0 7 -7 12 -15
12 -8 0 -15 -7 -15 -15z m31 -70 c0 -5 -9 -11 -21 -13 -15 -3 -18 1 -14 13 7
17 35 17 35 0z"/>
<path d="M5934 1069 c-4 -7 -2 -15 5 -17 9 -3 9 -7 0 -18 -13 -16 -33 -19 -24
-4 3 6 2 10 -4 10 -5 0 -11 -6 -14 -12 -3 -10 -12 -10 -41 0 -42 16 -61 7 -32
-14 11 -7 17 -17 13 -20 -4 -4 -14 -1 -23 7 -17 14 -85 13 -94 -1 -3 -5 -18
-13 -33 -19 -24 -9 -26 -14 -17 -31 6 -11 21 -20 34 -20 16 0 23 -5 22 -17 -1
-12 11 -22 34 -29 19 -7 34 -17 32 -24 -2 -8 4 -8 20 1 13 6 20 8 16 4 -10
-10 19 -38 35 -32 6 2 20 -2 30 -11 12 -11 17 -12 17 -2 0 7 7 10 16 6 9 -3
21 -3 27 1 7 4 23 9 37 11 40 5 118 97 111 131 -1 8 3 12 11 9 8 -3 23 2 35
12 20 16 20 19 7 38 -12 18 -22 20 -84 16 -44 -3 -70 -1 -70 6 0 5 -8 10 -18
10 -10 0 -23 5 -29 11 -8 8 -13 7 -19 -2z"/>
<path d="M5845 1060 c-3 -5 1 -10 9 -10 9 0 16 5 16 10 0 6 -4 10 -9 10 -6 0
-13 -4 -16 -10z"/>
<path d="M8450 1035 c0 -8 5 -15 10 -15 6 0 10 7 10 15 0 8 -4 15 -10 15 -5 0
-10 -7 -10 -15z"/>
<path d="M8656 1041 c-3 -5 -7 -25 -8 -45 -2 -20 -6 -36 -10 -36 -5 0 -8 -6
-8 -13 0 -18 -29 -75 -42 -83 -6 -4 -21 -31 -34 -61 -22 -49 -27 -53 -41 -42
-14 12 -18 11 -27 -5 -6 -10 -23 -34 -39 -54 -15 -19 -30 -47 -33 -61 -10 -48
-55 -159 -70 -171 -7 -7 -18 -29 -24 -50 -6 -21 -30 -58 -59 -88 -28 -29 -58
-65 -68 -82 -9 -17 -25 -33 -35 -36 -10 -3 -18 -11 -18 -18 0 -7 -40 -51 -90
-98 -49 -48 -90 -89 -90 -92 0 -3 189 -6 421 -6 410 0 420 0 414 19 -3 11 -1
22 5 26 5 3 10 15 10 26 0 10 5 19 10 19 6 0 10 -20 10 -45 0 -38 3 -45 19
-45 16 0 21 12 32 73 8 39 15 63 17 52 2 -11 11 -44 19 -74 13 -45 17 -51 25
-37 7 12 7 21 -1 29 -21 21 -13 38 15 31 23 -6 25 -4 22 17 -2 16 -9 23 -20
21 -14 -2 -17 3 -15 28 5 39 16 50 24 21 4 -16 11 -21 24 -18 11 3 19 1 19 -5
0 -5 5 -6 10 -3 17 11 11 25 -15 37 -26 12 -35 31 -10 22 8 -4 17 1 21 9 3 9
12 13 19 11 25 -10 25 14 -1 62 -20 38 -24 52 -15 66 16 25 14 63 -4 78 -18
15 -20 -1 -3 -18 9 -9 9 -15 1 -23 -8 -8 -13 -8 -17 0 -9 14 -46 14 -46 0 0
-5 5 -7 10 -4 11 7 40 -18 40 -34 0 -14 -3 -14 -34 1 -14 6 -28 19 -31 30 -4
10 -11 18 -16 18 -12 0 -12 -17 2 -25 5 -4 8 -12 6 -18 -4 -13 50 -40 63 -32
4 2 7 -14 7 -36 0 -44 -10 -57 -32 -39 -22 18 -41 6 -48 -29 -4 -17 -11 -31
-17 -31 -13 0 -13 17 -1 25 5 3 8 21 5 40 -5 39 -3 41 26 23 10 -7 22 -9 26
-6 12 13 -5 38 -27 38 -29 0 -70 45 -76 86 -7 43 -22 44 -20 2 0 -18 -2 -40
-6 -48 -5 -11 2 -19 23 -28 16 -8 30 -21 30 -30 0 -12 -3 -13 -12 -4 -7 7 -18
12 -25 12 -8 0 -26 9 -41 19 -31 23 -87 19 -78 -5 4 -10 -2 -12 -24 -7 -25 5
-30 2 -30 -15 0 -11 -7 -22 -15 -25 -16 -7 -32 12 -18 22 12 8 30 88 44 200
11 81 10 96 -4 120 -16 27 -24 96 -14 121 4 8 5 24 4 35 -1 12 3 19 11 17 17
-3 12 30 -5 36 -7 2 -13 -3 -13 -11 0 -8 -6 -17 -14 -20 -7 -3 -16 -21 -20
-40 -7 -37 10 -134 26 -155 19 -23 -10 -232 -32 -232 -12 0 -19 25 -24 90 -3
30 -10 71 -17 90 -21 62 -23 77 -8 72 11 -2 12 22 2 32 -4 4 -8 34 -9 66 -1
42 2 60 12 64 8 3 14 15 14 26 0 20 13 49 36 80 6 8 18 45 27 81 9 36 19 73
23 82 6 18 -11 24 -20 8z m-120 -498 c2 -12 0 -25 -6 -28 -5 -3 0 -24 10 -48
17 -37 18 -43 4 -53 -13 -10 -13 -12 1 -18 8 -3 15 -12 15 -21 0 -18 1 -18
-44 0 -39 16 -43 24 -24 43 9 9 7 12 -9 12 -23 0 -36 22 -27 45 9 21 -12 19
-21 -2 -6 -14 -10 -9 -17 21 -10 46 -7 51 22 36 25 -13 39 -5 22 12 -21 21
-13 29 30 26 33 -3 42 -7 44 -25z m269 -273 c3 -5 -1 -10 -9 -10 -9 0 -16 5
-16 10 0 6 4 10 9 10 6 0 13 -4 16 -10z m-90 -10 c3 -5 -1 -10 -9 -10 -9 0
-16 5 -16 10 0 6 4 10 9 10 6 0 13 -4 16 -10z m40 -10 c4 -6 10 -8 15 -5 9 6
25 -13 18 -21 -6 -6 -58 19 -58 29 0 11 18 9 25 -3z m101 -5 c18 -13 18 -14
-4 -8 -12 3 -25 9 -28 14 -8 14 10 11 32 -6z m-122 -30 c6 -17 4 -18 -18 -9
-20 8 -21 24 -2 24 8 0 16 -7 20 -15z m-94 -10 c0 -8 -4 -15 -10 -15 -5 0 -10
7 -10 15 0 8 5 15 10 15 6 0 10 -7 10 -15z m100 -85 c0 -5 -12 -10 -27 -9
l-28 1 25 8 c14 4 26 8 28 9 1 1 2 -3 2 -9z m30 -57 c0 -35 0 -36 -18 -18 -16
18 -16 21 -3 37 21 24 21 24 21 -19z"/>
<path d="M8850 1040 c0 -5 5 -10 10 -10 6 0 10 5 10 10 0 6 -4 10 -10 10 -5 0
-10 -4 -10 -10z"/>
<path d="M4220 1021 c0 -11 5 -23 10 -26 6 -4 10 5 10 19 0 14 -4 26 -10 26
-5 0 -10 -9 -10 -19z"/>
<path d="M6405 1020 c-3 -5 3 -10 15 -10 12 0 18 5 15 10 -3 6 -10 10 -15 10
-5 0 -12 -4 -15 -10z"/>
<path d="M6635 1020 c-3 -5 -1 -10 4 -10 6 0 11 5 11 10 0 6 -2 10 -4 10 -3 0
-8 -4 -11 -10z"/>
<path d="M8717 1003 c-4 -3 -7 -16 -6 -27 0 -19 1 -19 10 3 10 24 8 36 -4 24z"/>
<path d="M4070 979 c0 -18 2 -19 15 -9 8 7 15 16 15 21 0 5 -7 9 -15 9 -9 0
-15 -9 -15 -21z"/>
<path d="M8935 990 c3 -5 8 -10 11 -10 2 0 4 5 4 10 0 6 -5 10 -11 10 -5 0 -7
-4 -4 -10z"/>
<path d="M8470 976 c0 -9 5 -16 10 -16 6 0 10 4 10 9 0 6 -4 13 -10 16 -5 3
-10 -1 -10 -9z"/>
<path d="M5596 942 c-2 -4 -1 -14 5 -22 7 -12 9 -10 9 8 0 23 -5 28 -14 14z"/>
<path d="M6470 931 c0 -6 4 -13 10 -16 6 -3 7 1 4 9 -7 18 -14 21 -14 7z"/>
<path d="M8790 911 c0 -5 5 -13 10 -16 6 -3 10 -2 10 4 0 5 -4 13 -10 16 -5 3
-10 2 -10 -4z"/>
<path d="M8860 896 c0 -14 29 -31 38 -22 5 5 -23 36 -32 36 -3 0 -6 -6 -6 -14z"/>
<path d="M8366 875 c-3 -8 -1 -15 4 -15 6 0 10 7 10 15 0 8 -2 15 -4 15 -2 0
-6 -7 -10 -15z"/>
<path d="M8676 874 c-8 -22 4 -40 15 -23 11 18 11 39 0 39 -5 0 -12 -7 -15
-16z"/>
<path d="M6440 870 c0 -5 5 -10 10 -10 6 0 10 5 10 10 0 6 -4 10 -10 10 -5 0
-10 -4 -10 -10z"/>
<path d="M8220 854 c0 -8 5 -12 10 -9 6 3 10 10 10 16 0 5 -4 9 -10 9 -5 0
-10 -7 -10 -16z"/>
<path d="M5980 810 c0 -5 5 -10 10 -10 6 0 10 5 10 10 0 6 -4 10 -10 10 -5 0
-10 -4 -10 -10z"/>
<path d="M8341 794 c0 -11 3 -14 6 -6 3 7 2 16 -1 19 -3 4 -6 -2 -5 -13z"/>
<path d="M8195 780 c3 -5 8 -10 11 -10 2 0 4 5 4 10 0 6 -5 10 -11 10 -5 0 -7
-4 -4 -10z"/>
<path d="M8310 736 c0 -9 -4 -16 -8 -16 -7 0 -42 -52 -42 -63 0 -3 8 -7 18 -9
13 -4 21 6 34 44 9 27 12 50 7 54 -5 3 -9 -2 -9 -10z"/>
<path d="M5105 731 c-3 -5 -1 -12 5 -16 5 -3 10 1 10 9 0 18 -6 21 -15 7z"/>
<path d="M5020 685 c0 -8 4 -15 9 -15 5 0 11 7 15 15 3 9 0 15 -9 15 -8 0 -15
-7 -15 -15z"/>
<path d="M5111 684 c0 -11 3 -14 6 -6 3 7 2 16 -1 19 -3 4 -6 -2 -5 -13z"/>
<path d="M5410 689 c0 -5 5 -7 10 -4 6 3 10 8 10 11 0 2 -4 4 -10 4 -5 0 -10
-5 -10 -11z"/>
<path d="M4476 665 c-3 -8 -1 -15 4 -15 13 0 22 18 11 24 -5 3 -11 -1 -15 -9z"/>
<path d="M8260 610 c13 -23 20 -26 20 -6 0 8 -7 16 -15 20 -13 4 -14 2 -5 -14z"/>
<path d="M8980 590 c0 -5 5 -10 10 -10 6 0 10 5 10 10 0 6 -4 10 -10 10 -5 0
-10 -4 -10 -10z"/>
<path d="M8245 570 c3 -5 8 -10 11 -10 2 0 4 5 4 10 0 6 -5 10 -11 10 -5 0 -7
-4 -4 -10z"/>
<path d="M5005 500 c3 -5 8 -10 11 -10 2 0 4 5 4 10 0 6 -5 10 -11 10 -5 0 -7
-4 -4 -10z"/>
<path d="M8202 477 c-9 -11 -10 -17 -2 -22 15 -9 23 -1 18 21 -3 15 -4 16 -16
1z"/>
<path d="M8930 420 c0 -5 5 -10 11 -10 5 0 7 5 4 10 -3 6 -8 10 -11 10 -2 0
-4 -4 -4 -10z"/>
<path d="M8170 410 c0 -5 5 -10 10 -10 6 0 10 5 10 10 0 6 -4 10 -10 10 -5 0
-10 -4 -10 -10z"/>
<path d="M8736 384 c-3 -9 2 -17 12 -21 9 -4 20 -11 23 -16 4 -5 9 -5 13 2 4
6 2 11 -3 11 -6 0 -11 6 -11 14 0 20 -27 28 -34 10z"/>
<path d="M960 355 c0 -8 4 -15 9 -15 5 0 11 7 15 15 3 9 0 15 -9 15 -8 0 -15
-7 -15 -15z"/>
<path d="M9037 343 c-4 -3 -7 -11 -7 -17 0 -6 5 -5 12 2 6 6 9 14 7 17 -3 3
-9 2 -12 -2z"/>
<path d="M5165 320 c4 -6 11 -8 16 -5 14 9 11 15 -7 15 -8 0 -12 -5 -9 -10z"/>
<path d="M9060 305 c0 -8 4 -15 10 -15 5 0 7 7 4 15 -4 8 -8 15 -10 15 -2 0
-4 -7 -4 -15z"/>
<path d="M4908 293 c6 -2 18 -2 25 0 6 3 1 5 -13 5 -14 0 -19 -2 -12 -5z"/>
<path d="M5295 269 c-4 -6 -5 -13 -2 -16 7 -7 27 6 27 18 0 12 -17 12 -25 -2z"/>
<path d="M4780 247 c0 -21 17 -40 29 -33 18 11 13 33 -9 39 -12 3 -20 0 -20
-6z"/>
<path d="M5280 194 c0 -8 5 -12 10 -9 6 4 8 11 5 16 -9 14 -15 11 -15 -7z"/>
<path d="M5322 159 c2 -6 8 -10 13 -10 5 0 11 4 13 10 2 6 -4 11 -13 11 -9 0
-15 -5 -13 -11z"/>
<path d="M4905 140 c-3 -5 1 -10 10 -10 9 0 13 5 10 10 -3 6 -8 10 -10 10 -2
0 -7 -4 -10 -10z"/>
<path d="M5630 132 c0 -11 22 -32 32 -32 5 0 4 9 -2 20 -11 20 -30 28 -30 12z"/>
<path d="M5530 120 c-8 -5 -11 -12 -8 -16 10 -9 38 3 38 16 0 12 -10 13 -30 0z"/>
<path d="M5305 112 c-23 -5 -40 -25 -60 -71 -20 -44 -20 -43 17 -39 24 2 34 9
36 23 2 11 10 35 19 53 17 38 16 40 -12 34z"/>
<path d="M4921 96 c-7 -8 -10 -19 -7 -24 3 -5 1 -23 -4 -41 -6 -23 -5 -31 4
-31 9 0 16 19 20 51 8 57 5 67 -13 45z"/>
<path d="M5378 103 c-21 -5 -21 -48 -1 -65 7 -6 13 -17 13 -24 0 -8 5 -14 11
-14 6 0 8 9 4 20 -4 13 -1 22 8 26 11 4 13 13 8 32 -8 27 -16 32 -43 25z"/>
<path d="M5180 76 c-8 -11 -9 -16 -1 -16 6 0 11 -7 11 -15 0 -20 19 -19 27 1
3 8 -1 22 -9 30 -13 13 -16 13 -28 0z"/>
<path d="M4990 36 c0 -26 4 -36 16 -36 11 0 14 8 12 32 -4 46 -28 49 -28 4z"/>
<path d="M5478 64 c-11 -10 13 -64 29 -64 20 0 14 64 -7 68 -9 1 -19 0 -22 -4z"/>
<path d="M4947 40 c3 -11 7 -20 9 -20 2 0 4 9 4 20 0 11 -4 20 -9 20 -5 0 -7
-9 -4 -20z"/>
<path d="M5126 24 c-9 -23 -8 -24 14 -24 11 0 20 2 20 4 0 12 -13 36 -20 36
-4 0 -11 -7 -14 -16z"/>
<path d="M5327 34 c-14 -15 -6 -34 14 -34 14 0 19 5 17 17 -3 18 -20 27 -31
17z"/>
<path d="M5530 15 c0 -8 9 -15 20 -15 11 0 20 7 20 15 0 8 -9 15 -20 15 -11 0
-20 -7 -20 -15z"/>
</g>
</svg>
